<svg width="1578" height="139" viewBox="0 0 1578 139" fill="none" xmlns="http://www.w3.org/2000/svg">
<g filter="url(#filter0_d_684_300)">
<mask id="path-1-outside-1_684_300" maskUnits="userSpaceOnUse" x="6" y="11" width="768" height="113" fill="black">
<rect fill="white" x="6" y="11" width="768" height="113"/>
<path d="M7.154 102.02V81.872L53.29 15.88H81.176V80.412H93.148V102.02H81.176V121H56.21V102.02H7.154ZM57.962 43.328L33.434 80.412H57.962V43.328ZM105.377 66.25C105.377 49.5087 108.589 36.32 115.013 26.684C121.534 17.048 131.997 12.23 146.403 12.23C160.808 12.23 171.223 17.048 177.647 26.684C184.168 36.32 187.429 49.5087 187.429 66.25C187.429 83.186 184.168 96.472 177.647 106.108C171.223 115.744 160.808 120.562 146.403 120.562C131.997 120.562 121.534 115.744 115.013 106.108C108.589 96.472 105.377 83.186 105.377 66.25ZM162.901 66.25C162.901 56.4193 161.83 48.876 159.689 43.62C157.547 38.2667 153.119 35.59 146.403 35.59C139.687 35.59 135.258 38.2667 133.117 43.62C130.975 48.876 129.905 56.4193 129.905 66.25C129.905 72.8687 130.294 78.368 131.073 82.748C131.851 87.0307 133.409 90.5347 135.745 93.26C138.178 95.888 141.731 97.202 146.403 97.202C151.075 97.202 154.579 95.888 156.915 93.26C159.348 90.5347 160.954 87.0307 161.733 82.748C162.511 78.368 162.901 72.8687 162.901 66.25ZM276.831 18.508V38.51H249.675V121H224.709V38.51H197.553V18.508H276.831ZM378.129 18.508V121H353.163V78.806H314.327V121H289.361V18.508H314.327V58.658H353.163V18.508H378.129ZM452.057 101.728H484.761V121H427.091V18.508H452.057V101.728ZM533.753 122.022C526.259 122.022 519.543 120.805 513.605 118.372C507.668 115.939 502.899 112.337 499.297 107.568C495.793 102.799 493.944 97.056 493.749 90.34H520.321C520.711 94.136 522.025 97.056 524.263 99.1C526.502 101.047 529.422 102.02 533.023 102.02C536.722 102.02 539.642 101.193 541.783 99.538C543.925 97.786 544.995 95.4013 544.995 92.384C544.995 89.8533 544.119 87.7607 542.367 86.106C540.713 84.4513 538.62 83.0887 536.089 82.018C533.656 80.9473 530.152 79.7307 525.577 78.368C518.959 76.324 513.557 74.28 509.371 72.236C505.186 70.192 501.585 67.1747 498.567 63.184C495.55 59.1933 494.041 53.986 494.041 47.562C494.041 38.0233 497.497 30.5773 504.407 25.224C511.318 19.7733 520.321 17.048 531.417 17.048C542.708 17.048 551.809 19.7733 558.719 25.224C565.63 30.5773 569.329 38.072 569.815 47.708H542.805C542.611 44.3987 541.394 41.8193 539.155 39.97C536.917 38.0233 534.045 37.05 530.541 37.05C527.524 37.05 525.091 37.8773 523.241 39.532C521.392 41.0893 520.467 43.3767 520.467 46.394C520.467 49.7033 522.025 52.2827 525.139 54.132C528.254 55.9813 533.121 57.9767 539.739 60.118C546.358 62.3567 551.711 64.498 555.799 66.542C559.985 68.586 563.586 71.5547 566.603 75.448C569.621 79.3413 571.129 84.354 571.129 90.486C571.129 96.326 569.621 101.631 566.603 106.4C563.683 111.169 559.401 114.965 553.755 117.788C548.11 120.611 541.443 122.022 533.753 122.022ZM582.259 69.608C582.259 59.4853 584.449 50.482 588.829 42.598C593.209 34.6167 599.293 28.436 607.079 24.056C614.963 19.5787 623.869 17.34 633.797 17.34C645.964 17.34 656.379 20.552 665.041 26.976C673.704 33.4 679.495 42.16 682.415 53.256H654.967C652.923 48.9733 650.003 45.7127 646.207 43.474C642.509 41.2353 638.275 40.116 633.505 40.116C625.816 40.116 619.587 42.7927 614.817 48.146C610.048 53.4993 607.663 60.6533 607.663 69.608C607.663 78.5627 610.048 85.7167 614.817 91.07C619.587 96.4233 625.816 99.1 633.505 99.1C638.275 99.1 642.509 97.9807 646.207 95.742C650.003 93.5033 652.923 90.2427 654.967 85.96H682.415C679.495 97.056 673.704 105.816 665.041 112.24C656.379 118.567 645.964 121.73 633.797 121.73C623.869 121.73 614.963 119.54 607.079 115.16C599.293 110.683 593.209 104.502 588.829 96.618C584.449 88.734 582.259 79.7307 582.259 69.608ZM734.788 122.022C727.294 122.022 720.578 120.805 714.64 118.372C708.703 115.939 703.934 112.337 700.332 107.568C696.828 102.799 694.979 97.056 694.784 90.34H721.356C721.746 94.136 723.06 97.056 725.298 99.1C727.537 101.047 730.457 102.02 734.058 102.02C737.757 102.02 740.677 101.193 742.818 99.538C744.96 97.786 746.03 95.4013 746.03 92.384C746.03 89.8533 745.154 87.7607 743.402 86.106C741.748 84.4513 739.655 83.0887 737.124 82.018C734.691 80.9473 731.187 79.7307 726.612 78.368C719.994 76.324 714.592 74.28 710.406 72.236C706.221 70.192 702.62 67.1747 699.602 63.184C696.585 59.1933 695.076 53.986 695.076 47.562C695.076 38.0233 698.532 30.5773 705.442 25.224C712.353 19.7733 721.356 17.048 732.452 17.048C743.743 17.048 752.844 19.7733 759.754 25.224C766.665 30.5773 770.364 38.072 770.85 47.708H743.84C743.646 44.3987 742.429 41.8193 740.19 39.97C737.952 38.0233 735.08 37.05 731.576 37.05C728.559 37.05 726.126 37.8773 724.276 39.532C722.427 41.0893 721.502 43.3767 721.502 46.394C721.502 49.7033 723.06 52.2827 726.174 54.132C729.289 55.9813 734.156 57.9767 740.774 60.118C747.393 62.3567 752.746 64.498 756.834 66.542C761.02 68.586 764.621 71.5547 767.638 75.448C770.656 79.3413 772.164 84.354 772.164 90.486C772.164 96.326 770.656 101.631 767.638 106.4C764.718 111.169 760.436 114.965 754.79 117.788C749.145 120.611 742.478 122.022 734.788 122.022Z"/>
</mask>
<path d="M7.154 102.02H6.154V103.02H7.154V102.02ZM7.154 81.872L6.33443 81.299L6.154 81.5571V81.872H7.154ZM53.29 15.88V14.88H52.769L52.4704 15.307L53.29 15.88ZM81.176 15.88H82.176V14.88H81.176V15.88ZM81.176 80.412H80.176V81.412H81.176V80.412ZM93.148 80.412H94.148V79.412H93.148V80.412ZM93.148 102.02V103.02H94.148V102.02H93.148ZM81.176 102.02V101.02H80.176V102.02H81.176ZM81.176 121V122H82.176V121H81.176ZM56.21 121H55.21V122H56.21V121ZM56.21 102.02H57.21V101.02H56.21V102.02ZM57.962 43.328H58.962V40.0034L57.1279 42.7763L57.962 43.328ZM33.434 80.412L32.5999 79.8603L31.5736 81.412H33.434V80.412ZM57.962 80.412V81.412H58.962V80.412H57.962ZM7.154 102.02H8.154V81.872H7.154H6.154V102.02H7.154ZM7.154 81.872L7.97357 82.445L54.1096 16.453L53.29 15.88L52.4704 15.307L6.33443 81.299L7.154 81.872ZM53.29 15.88V16.88H81.176V15.88V14.88H53.29V15.88ZM81.176 15.88H80.176V80.412H81.176H82.176V15.88H81.176ZM81.176 80.412V81.412H93.148V80.412V79.412H81.176V80.412ZM93.148 80.412H92.148V102.02H93.148H94.148V80.412H93.148ZM93.148 102.02V101.02H81.176V102.02V103.02H93.148V102.02ZM81.176 102.02H80.176V121H81.176H82.176V102.02H81.176ZM81.176 121V120H56.21V121V122H81.176V121ZM56.21 121H57.21V102.02H56.21H55.21V121H56.21ZM56.21 102.02V101.02H7.154V102.02V103.02H56.21V102.02ZM57.962 43.328L57.1279 42.7763L32.5999 79.8603L33.434 80.412L34.2681 80.9637L58.7961 43.8797L57.962 43.328ZM33.434 80.412V81.412H57.962V80.412V79.412H33.434V80.412ZM57.962 80.412H58.962V43.328H57.962H56.962V80.412H57.962ZM115.013 26.684L114.184 26.1235L114.181 26.1293L115.013 26.684ZM177.647 26.684L176.815 27.2387L176.818 27.2445L177.647 26.684ZM177.647 106.108L176.818 105.548L176.815 105.553L177.647 106.108ZM115.013 106.108L114.181 106.663L114.184 106.668L115.013 106.108ZM159.689 43.62L158.76 43.9914L158.763 43.9973L159.689 43.62ZM133.117 43.62L134.043 43.9973L134.045 43.9914L133.117 43.62ZM131.073 82.748L130.088 82.923L130.089 82.9269L131.073 82.748ZM135.745 93.26L134.985 93.9108L134.998 93.9253L135.011 93.9394L135.745 93.26ZM156.915 93.26L156.169 92.594L156.167 92.5956L156.915 93.26ZM161.733 82.748L162.717 82.9269L162.717 82.923L161.733 82.748ZM105.377 66.25H106.377C106.377 49.6224 109.569 36.6524 115.845 27.2387L115.013 26.684L114.181 26.1293C107.608 35.9876 104.377 49.395 104.377 66.25H105.377ZM115.013 26.684L115.841 27.2445C122.131 17.95 132.24 13.23 146.403 13.23V12.23V11.23C131.755 11.23 120.937 16.1459 114.184 26.1235L115.013 26.684ZM146.403 12.23V13.23C160.566 13.23 170.622 17.95 176.815 27.2387L177.647 26.684L178.479 26.1293C171.823 16.146 161.05 11.23 146.403 11.23V12.23ZM177.647 26.684L176.818 27.2445C183.189 36.6571 186.429 49.6247 186.429 66.25H187.429H188.429C188.429 49.3926 185.147 35.9829 178.475 26.1235L177.647 26.684ZM187.429 66.25H186.429C186.429 83.0727 183.188 96.1365 176.818 105.548L177.647 106.108L178.475 106.668C185.148 96.8075 188.429 83.2993 188.429 66.25H187.429ZM177.647 106.108L176.815 105.553C170.622 114.842 160.566 119.562 146.403 119.562V120.562V121.562C161.05 121.562 171.823 116.646 178.479 106.663L177.647 106.108ZM146.403 120.562V119.562C132.24 119.562 122.131 114.842 115.841 105.548L115.013 106.108L114.184 106.668C120.937 116.646 131.755 121.562 146.403 121.562V120.562ZM115.013 106.108L115.845 105.553C109.57 96.1412 106.377 83.0751 106.377 66.25H105.377H104.377C104.377 83.2969 107.607 96.8028 114.181 106.663L115.013 106.108ZM162.901 66.25H163.901C163.901 56.3707 162.828 48.6756 160.615 43.2427L159.689 43.62L158.763 43.9973C160.832 49.0764 161.901 56.4679 161.901 66.25H162.901ZM159.689 43.62L160.617 43.2486C159.475 40.3943 157.7 38.2053 155.278 36.7417C152.868 35.2848 149.89 34.59 146.403 34.59V35.59V36.59C149.632 36.59 152.226 37.2335 154.244 38.4533C156.251 39.6664 157.761 41.4923 158.76 43.9914L159.689 43.62ZM146.403 35.59V34.59C142.916 34.59 139.937 35.2848 137.527 36.7417C135.105 38.2053 133.33 40.3943 132.188 43.2486L133.117 43.62L134.045 43.9914C135.045 41.4923 136.554 39.6664 138.561 38.4533C140.58 37.2335 143.174 36.59 146.403 36.59V35.59ZM133.117 43.62L132.191 43.2427C129.977 48.6756 128.905 56.3707 128.905 66.25H129.905H130.905C130.905 56.4679 131.973 49.0764 134.043 43.9973L133.117 43.62ZM129.905 66.25H128.905C128.905 72.9019 129.295 78.4647 130.088 82.923L131.073 82.748L132.057 82.573C131.292 78.2713 130.905 72.8354 130.905 66.25H129.905ZM131.073 82.748L130.089 82.9269C130.892 87.3469 132.512 91.0249 134.985 93.9108L135.745 93.26L136.504 92.6092C134.306 90.0445 132.81 86.7144 132.057 82.5691L131.073 82.748ZM135.745 93.26L135.011 93.9394C137.687 96.8293 141.541 98.202 146.403 98.202V97.202V96.202C141.92 96.202 138.669 94.9467 136.478 92.5806L135.745 93.26ZM146.403 97.202V98.202C151.261 98.202 155.079 96.8301 157.662 93.9244L156.915 93.26L156.167 92.5956C154.078 94.9459 150.888 96.202 146.403 96.202V97.202ZM156.915 93.26L157.661 93.926C160.238 91.039 161.911 87.3558 162.717 82.9269L161.733 82.748L160.749 82.5691C159.997 86.7056 158.458 90.0303 156.169 92.594L156.915 93.26ZM161.733 82.748L162.717 82.923C163.51 78.4647 163.901 72.9019 163.901 66.25H162.901H161.901C161.901 72.8354 161.513 78.2713 160.748 82.573L161.733 82.748ZM276.831 18.508H277.831V17.508H276.831V18.508ZM276.831 38.51V39.51H277.831V38.51H276.831ZM249.675 38.51V37.51H248.675V38.51H249.675ZM249.675 121V122H250.675V121H249.675ZM224.709 121H223.709V122H224.709V121ZM224.709 38.51H225.709V37.51H224.709V38.51ZM197.553 38.51H196.553V39.51H197.553V38.51ZM197.553 18.508V17.508H196.553V18.508H197.553ZM276.831 18.508H275.831V38.51H276.831H277.831V18.508H276.831ZM276.831 38.51V37.51H249.675V38.51V39.51H276.831V38.51ZM249.675 38.51H248.675V121H249.675H250.675V38.51H249.675ZM249.675 121V120H224.709V121V122H249.675V121ZM224.709 121H225.709V38.51H224.709H223.709V121H224.709ZM224.709 38.51V37.51H197.553V38.51V39.51H224.709V38.51ZM197.553 38.51H198.553V18.508H197.553H196.553V38.51H197.553ZM197.553 18.508V19.508H276.831V18.508V17.508H197.553V18.508ZM378.129 18.508H379.129V17.508H378.129V18.508ZM378.129 121V122H379.129V121H378.129ZM353.163 121H352.163V122H353.163V121ZM353.163 78.806H354.163V77.806H353.163V78.806ZM314.327 78.806V77.806H313.327V78.806H314.327ZM314.327 121V122H315.327V121H314.327ZM289.361 121H288.361V122H289.361V121ZM289.361 18.508V17.508H288.361V18.508H289.361ZM314.327 18.508H315.327V17.508H314.327V18.508ZM314.327 58.658H313.327V59.658H314.327V58.658ZM353.163 58.658V59.658H354.163V58.658H353.163ZM353.163 18.508V17.508H352.163V18.508H353.163ZM378.129 18.508H377.129V121H378.129H379.129V18.508H378.129ZM378.129 121V120H353.163V121V122H378.129V121ZM353.163 121H354.163V78.806H353.163H352.163V121H353.163ZM353.163 78.806V77.806H314.327V78.806V79.806H353.163V78.806ZM314.327 78.806H313.327V121H314.327H315.327V78.806H314.327ZM314.327 121V120H289.361V121V122H314.327V121ZM289.361 121H290.361V18.508H289.361H288.361V121H289.361ZM289.361 18.508V19.508H314.327V18.508V17.508H289.361V18.508ZM314.327 18.508H313.327V58.658H314.327H315.327V18.508H314.327ZM314.327 58.658V59.658H353.163V58.658V57.658H314.327V58.658ZM353.163 58.658H354.163V18.508H353.163H352.163V58.658H353.163ZM353.163 18.508V19.508H378.129V18.508V17.508H353.163V18.508ZM452.057 101.728H451.057V102.728H452.057V101.728ZM484.761 101.728H485.761V100.728H484.761V101.728ZM484.761 121V122H485.761V121H484.761ZM427.091 121H426.091V122H427.091V121ZM427.091 18.508V17.508H426.091V18.508H427.091ZM452.057 18.508H453.057V17.508H452.057V18.508ZM452.057 101.728V102.728H484.761V101.728V100.728H452.057V101.728ZM484.761 101.728H483.761V121H484.761H485.761V101.728H484.761ZM484.761 121V120H427.091V121V122H484.761V121ZM427.091 121H428.091V18.508H427.091H426.091V121H427.091ZM427.091 18.508V19.508H452.057V18.508V17.508H427.091V18.508ZM452.057 18.508H451.057V101.728H452.057H453.057V18.508H452.057ZM513.605 118.372L513.226 119.297L513.226 119.297L513.605 118.372ZM499.297 107.568L498.491 108.16L498.499 108.171L499.297 107.568ZM493.749 90.34V89.34H492.72L492.75 90.369L493.749 90.34ZM520.321 90.34L521.316 90.238L521.224 89.34H520.321V90.34ZM524.263 99.1L523.589 99.8385L523.598 99.8467L523.607 99.8546L524.263 99.1ZM541.783 99.538L542.395 100.329L542.406 100.321L542.416 100.312L541.783 99.538ZM542.367 86.106L541.66 86.8131L541.67 86.8232L541.681 86.833L542.367 86.106ZM536.089 82.018L535.686 82.9333L535.693 82.9362L535.7 82.939L536.089 82.018ZM525.577 78.368L525.282 79.3235L525.292 79.3264L525.577 78.368ZM509.371 72.236L508.932 73.1346L509.371 72.236ZM498.567 63.184L499.365 62.5809L499.365 62.5809L498.567 63.184ZM504.407 25.224L505.02 26.0146L505.026 26.0092L504.407 25.224ZM558.719 25.224L558.1 26.0092L558.107 26.0145L558.719 25.224ZM569.815 47.708V48.708H570.867L570.814 47.6576L569.815 47.708ZM542.805 47.708L541.807 47.7667L541.862 48.708H542.805V47.708ZM539.155 39.97L538.499 40.7246L538.509 40.7329L538.518 40.741L539.155 39.97ZM523.241 39.532L523.885 40.2969L523.897 40.2872L523.908 40.2772L523.241 39.532ZM525.139 54.132L525.65 53.2721L525.65 53.2721L525.139 54.132ZM539.739 60.118L540.06 59.1706L540.047 59.1666L539.739 60.118ZM555.799 66.542L555.352 67.4365L555.36 67.4406L555.799 66.542ZM566.603 75.448L565.813 76.0606L565.813 76.0606L566.603 75.448ZM566.603 106.4L565.758 105.865L565.754 105.872L565.75 105.878L566.603 106.4ZM553.755 117.788L553.308 116.894L553.308 116.894L553.755 117.788ZM533.753 122.022V121.022C526.367 121.022 519.783 119.823 513.984 117.447L513.605 118.372L513.226 119.297C519.302 121.788 526.15 123.022 533.753 123.022V122.022ZM513.605 118.372L513.984 117.447C508.2 115.076 503.58 111.581 500.095 106.965L499.297 107.568L498.499 108.171C502.217 113.094 507.135 116.801 513.226 119.297L513.605 118.372ZM499.297 107.568L500.103 106.976C496.735 102.392 494.938 96.8525 494.749 90.311L493.749 90.34L492.75 90.369C492.949 97.2595 494.851 103.206 498.491 108.16L499.297 107.568ZM493.749 90.34V91.34H520.321V90.34V89.34H493.749V90.34ZM520.321 90.34L519.326 90.442C519.734 94.4168 521.126 97.5893 523.589 99.8385L524.263 99.1L524.937 98.3615C522.924 96.5227 521.687 93.8552 521.316 90.238L520.321 90.34ZM524.263 99.1L523.607 99.8546C526.065 101.992 529.235 103.02 533.023 103.02V102.02V101.02C529.609 101.02 526.939 100.102 524.919 98.3454L524.263 99.1ZM533.023 102.02V103.02C536.863 103.02 540.024 102.161 542.395 100.329L541.783 99.538L541.172 98.7467C539.26 100.224 536.581 101.02 533.023 101.02V102.02ZM541.783 99.538L542.416 100.312C544.813 98.3513 545.995 95.6703 545.995 92.384H544.995H543.995C543.995 95.1323 543.036 97.2207 541.15 98.764L541.783 99.538ZM544.995 92.384H545.995C545.995 89.5937 545.017 87.2329 543.054 85.379L542.367 86.106L541.681 86.833C543.222 88.2884 543.995 90.113 543.995 92.384H544.995ZM542.367 86.106L543.074 85.3989C541.314 83.6388 539.108 82.2093 536.479 81.097L536.089 82.018L535.7 82.939C538.132 83.9681 540.111 85.2639 541.66 86.8131L542.367 86.106ZM536.089 82.018L536.492 81.1027C534.002 80.007 530.451 78.7764 525.863 77.4096L525.577 78.368L525.292 79.3264C529.852 80.6849 533.31 81.8876 535.686 82.9333L536.089 82.018ZM525.577 78.368L525.872 77.4125C519.282 75.3772 513.933 73.3507 509.81 71.3374L509.371 72.236L508.932 73.1346C513.181 75.2093 518.635 77.2708 525.282 79.3235L525.577 78.368ZM509.371 72.236L509.81 71.3374C505.776 69.3674 502.295 66.4558 499.365 62.5809L498.567 63.184L497.77 63.7871C500.874 67.8936 504.596 71.0166 508.932 73.1346L509.371 72.236ZM498.567 63.184L499.365 62.5809C496.512 58.8077 495.041 53.8306 495.041 47.562H494.041H493.041C493.041 54.1414 494.588 59.5789 497.77 63.7871L498.567 63.184ZM494.041 47.562H495.041C495.041 38.3002 498.378 31.1595 505.02 26.0145L504.407 25.224L503.795 24.4334C496.615 29.9952 493.041 37.7465 493.041 47.562H494.041ZM504.407 25.224L505.026 26.0092C511.719 20.7306 520.486 18.048 531.417 18.048V17.048V16.048C520.156 16.048 510.917 18.8161 503.788 24.4388L504.407 25.224ZM531.417 17.048V18.048C542.548 18.048 551.41 20.7329 558.1 26.0092L558.719 25.224L559.338 24.4388C552.207 18.8138 542.868 16.048 531.417 16.048V17.048ZM558.719 25.224L558.107 26.0145C564.761 31.1695 568.343 38.3797 568.816 47.7584L569.815 47.708L570.814 47.6576C570.314 37.7643 566.498 29.9852 559.332 24.4334L558.719 25.224ZM569.815 47.708V46.708H542.805V47.708V48.708H569.815V47.708ZM542.805 47.708L543.803 47.6493C543.595 44.1058 542.276 41.2511 539.792 39.199L539.155 39.97L538.518 40.741C540.512 42.3876 541.626 44.6915 541.807 47.7667L542.805 47.708ZM539.155 39.97L539.811 39.2154C537.359 37.0827 534.24 36.05 530.541 36.05V37.05V38.05C533.85 38.05 536.474 38.964 538.499 40.7246L539.155 39.97ZM530.541 37.05V36.05C527.334 36.05 524.645 36.9343 522.574 38.7868L523.241 39.532L523.908 40.2772C525.536 38.8203 527.714 38.05 530.541 38.05V37.05ZM523.241 39.532L522.597 38.7671C520.468 40.5603 519.467 43.1612 519.467 46.394H520.467H521.467C521.467 43.5921 522.316 41.6184 523.885 40.2969L523.241 39.532ZM520.467 46.394H519.467C519.467 50.0948 521.245 52.9829 524.629 54.9918L525.139 54.132L525.65 53.2721C522.804 51.5824 521.467 49.3119 521.467 46.394H520.467ZM525.139 54.132L524.629 54.9918C527.842 56.8995 532.794 58.9221 539.431 61.0694L539.739 60.118L540.047 59.1666C533.447 57.0313 528.666 55.0632 525.65 53.2721L525.139 54.132ZM539.739 60.118L539.419 61.0653C546.014 63.2961 551.32 65.4206 555.352 67.4364L555.799 66.542L556.246 65.6476C552.102 63.5754 546.702 61.4173 540.06 59.1707L539.739 60.118ZM555.799 66.542L555.36 67.4406C559.4 69.4135 562.884 72.2811 565.813 76.0606L566.603 75.448L567.394 74.8354C564.288 70.8282 560.569 67.7584 556.238 65.6434L555.799 66.542ZM566.603 75.448L565.813 76.0606C568.664 79.7393 570.129 84.5204 570.129 90.486H571.129H572.129C572.129 84.1876 570.577 78.9433 567.394 74.8354L566.603 75.448ZM571.129 90.486H570.129C570.129 96.1437 568.671 101.262 565.758 105.865L566.603 106.4L567.448 106.935C570.57 102 572.129 96.5083 572.129 90.486H571.129ZM566.603 106.4L565.75 105.878C562.94 110.468 558.808 114.144 553.308 116.894L553.755 117.788L554.202 118.682C559.993 115.787 564.426 111.871 567.456 106.922L566.603 106.4ZM553.755 117.788L553.308 116.894C547.829 119.633 541.321 121.022 533.753 121.022V122.022V123.022C541.564 123.022 548.391 121.588 554.202 118.682L553.755 117.788ZM588.829 42.598L589.704 43.0836L589.706 43.0791L588.829 42.598ZM607.079 24.056L607.57 24.9276L607.573 24.9256L607.079 24.056ZM665.041 26.976L665.637 26.1728L665.637 26.1728L665.041 26.976ZM682.415 53.256V54.256H683.713L683.382 53.0015L682.415 53.256ZM654.967 53.256L654.065 53.6867L654.337 54.256H654.967V53.256ZM646.207 43.474L645.69 44.3296L645.699 44.3354L646.207 43.474ZM614.817 48.146L615.564 48.8112L615.564 48.8112L614.817 48.146ZM614.817 91.07L614.071 91.7352L614.817 91.07ZM646.207 95.742L645.699 94.8806L645.69 94.8865L646.207 95.742ZM654.967 85.96V84.96H654.337L654.065 85.5293L654.967 85.96ZM682.415 85.96L683.382 86.2145L683.713 84.96H682.415V85.96ZM665.041 112.24L665.631 113.048L665.637 113.043L665.041 112.24ZM607.079 115.16L606.581 116.027L606.587 116.031L606.594 116.034L607.079 115.16ZM588.829 96.618L589.704 96.1324L589.704 96.1324L588.829 96.618ZM582.259 69.608H583.259C583.259 59.6341 585.416 50.8016 589.704 43.0836L588.829 42.598L587.955 42.1124C583.483 50.1624 581.259 59.3366 581.259 69.608H582.259ZM588.829 42.598L589.706 43.0791C593.998 35.2582 599.949 29.2142 607.57 24.9276L607.079 24.056L606.589 23.1844C598.637 27.6578 592.421 33.9752 587.953 42.1169L588.829 42.598ZM607.079 24.056L607.573 24.9256C615.293 20.5417 624.026 18.34 633.797 18.34V17.34V16.34C623.713 16.34 614.634 18.6156 606.586 23.1864L607.079 24.056ZM633.797 17.34V18.34C645.778 18.34 655.977 21.4991 664.446 27.7792L665.041 26.976L665.637 26.1728C656.78 19.6048 646.15 16.34 633.797 16.34V17.34ZM665.041 26.976L664.446 27.7792C672.914 34.0588 678.582 42.6192 681.448 53.5105L682.415 53.256L683.382 53.0015C680.409 41.7008 674.494 32.7412 665.637 26.1728L665.041 26.976ZM682.415 53.256V52.256H654.967V53.256V54.256H682.415V53.256ZM654.967 53.256L655.87 52.8253C653.747 48.3775 650.696 44.9602 646.715 42.6126L646.207 43.474L645.699 44.3354C649.311 46.4651 652.1 49.5692 654.065 53.6867L654.967 53.256ZM646.207 43.474L646.725 42.6185C642.855 40.2757 638.438 39.116 633.505 39.116V40.116V41.116C638.112 41.116 642.163 42.1949 645.69 44.3295L646.207 43.474ZM633.505 40.116V39.116C625.554 39.116 619.045 41.8977 614.071 47.4808L614.817 48.146L615.564 48.8112C620.129 43.6877 626.078 41.116 633.505 41.116V40.116ZM614.817 48.146L614.071 47.4808C609.1 53.0597 606.663 60.4714 606.663 69.608H607.663H608.663C608.663 60.8352 610.996 53.939 615.564 48.8112L614.817 48.146ZM607.663 69.608H606.663C606.663 78.7445 609.1 86.1563 614.071 91.7352L614.817 91.07L615.564 90.4048C610.996 85.277 608.663 78.3808 608.663 69.608H607.663ZM614.817 91.07L614.071 91.7352C619.045 97.3183 625.554 100.1 633.505 100.1V99.1V98.1C626.078 98.1 620.129 95.5283 615.564 90.4048L614.817 91.07ZM633.505 99.1V100.1C638.438 100.1 642.855 98.9403 646.725 96.5975L646.207 95.742L645.69 94.8865C642.163 97.0211 638.112 98.1 633.505 98.1V99.1ZM646.207 95.742L646.715 96.6034C650.696 94.2558 653.747 90.8385 655.87 86.3907L654.967 85.96L654.065 85.5293C652.1 89.6468 649.311 92.7509 645.699 94.8806L646.207 95.742ZM654.967 85.96V86.96H682.415V85.96V84.96H654.967V85.96ZM682.415 85.96L681.448 85.7055C678.582 96.5968 672.914 105.157 664.446 111.437L665.041 112.24L665.637 113.043C674.494 106.475 680.409 97.5152 683.382 86.2145L682.415 85.96ZM665.041 112.24L664.452 111.432C655.983 117.618 645.782 120.73 633.797 120.73V121.73V122.73C646.146 122.73 656.775 119.516 665.631 113.048L665.041 112.24ZM633.797 121.73V120.73C624.022 120.73 615.286 118.575 607.565 114.286L607.079 115.16L606.594 116.034C614.641 120.505 623.717 122.73 633.797 122.73V121.73ZM607.079 115.16L607.578 114.293C599.949 109.907 593.996 103.858 589.704 96.1324L588.829 96.618L587.955 97.1036C592.423 105.146 598.636 111.459 606.581 116.027L607.079 115.16ZM588.829 96.618L589.704 96.1324C585.416 88.4144 583.259 79.5819 583.259 69.608H582.259H581.259C581.259 79.8794 583.483 89.0536 587.955 97.1036L588.829 96.618ZM714.64 118.372L714.261 119.297L714.261 119.297L714.64 118.372ZM700.332 107.568L699.526 108.16L699.534 108.171L700.332 107.568ZM694.784 90.34V89.34H693.755L693.785 90.369L694.784 90.34ZM721.356 90.34L722.351 90.238L722.259 89.34H721.356V90.34ZM725.298 99.1L724.624 99.8385L724.633 99.8467L724.642 99.8546L725.298 99.1ZM742.818 99.538L743.43 100.329L743.441 100.321L743.452 100.312L742.818 99.538ZM743.402 86.106L742.695 86.8131L742.705 86.8232L742.716 86.833L743.402 86.106ZM737.124 82.018L736.722 82.9333L736.728 82.9362L736.735 82.939L737.124 82.018ZM726.612 78.368L726.317 79.3235L726.327 79.3264L726.612 78.368ZM710.406 72.236L709.968 73.1346L710.406 72.236ZM699.602 63.184L700.4 62.5809L700.4 62.5809L699.602 63.184ZM705.442 25.224L706.055 26.0146L706.062 26.0092L705.442 25.224ZM759.754 25.224L759.135 26.0092L759.142 26.0145L759.754 25.224ZM770.85 47.708V48.708H771.902L771.849 47.6576L770.85 47.708ZM743.84 47.708L742.842 47.7667L742.897 48.708H743.84V47.708ZM740.19 39.97L739.534 40.7246L739.544 40.7329L739.553 40.741L740.19 39.97ZM724.276 39.532L724.92 40.2969L724.932 40.2872L724.943 40.2772L724.276 39.532ZM726.174 54.132L726.685 53.2721L726.685 53.2721L726.174 54.132ZM740.774 60.118L741.095 59.1706L741.082 59.1666L740.774 60.118ZM756.834 66.542L756.387 67.4365L756.396 67.4406L756.834 66.542ZM767.638 75.448L766.848 76.0606L766.848 76.0606L767.638 75.448ZM767.638 106.4L766.793 105.865L766.789 105.872L766.785 105.878L767.638 106.4ZM754.79 117.788L754.343 116.894L754.343 116.894L754.79 117.788ZM734.788 122.022V121.022C727.402 121.022 720.818 119.823 715.02 117.447L714.64 118.372L714.261 119.297C720.337 121.788 727.185 123.022 734.788 123.022V122.022ZM714.64 118.372L715.02 117.447C709.236 115.076 704.616 111.581 701.13 106.965L700.332 107.568L699.534 108.171C703.252 113.094 708.17 116.801 714.261 119.297L714.64 118.372ZM700.332 107.568L701.138 106.976C697.77 102.392 695.974 96.8525 695.784 90.311L694.784 90.34L693.785 90.369C693.984 97.2595 695.886 103.206 699.526 108.16L700.332 107.568ZM694.784 90.34V91.34H721.356V90.34V89.34H694.784V90.34ZM721.356 90.34L720.362 90.442C720.769 94.4168 722.161 97.5893 724.624 99.8385L725.298 99.1L725.973 98.3615C723.959 96.5227 722.722 93.8552 722.351 90.238L721.356 90.34ZM725.298 99.1L724.642 99.8546C727.1 101.992 730.27 103.02 734.058 103.02V102.02V101.02C730.644 101.02 727.974 100.102 725.955 98.3454L725.298 99.1ZM734.058 102.02V103.02C737.898 103.02 741.059 102.161 743.43 100.329L742.818 99.538L742.207 98.7467C740.295 100.224 737.616 101.02 734.058 101.02V102.02ZM742.818 99.538L743.452 100.312C745.848 98.3513 747.03 95.6703 747.03 92.384H746.03H745.03C745.03 95.1323 744.071 97.2207 742.185 98.764L742.818 99.538ZM746.03 92.384H747.03C747.03 89.5937 746.052 87.2329 744.089 85.379L743.402 86.106L742.716 86.833C744.257 88.2884 745.03 90.113 745.03 92.384H746.03ZM743.402 86.106L744.109 85.3989C742.349 83.6388 740.143 82.2093 737.514 81.097L737.124 82.018L736.735 82.939C739.167 83.9681 741.146 85.2639 742.695 86.8131L743.402 86.106ZM737.124 82.018L737.527 81.1027C735.037 80.007 731.486 78.7764 726.898 77.4096L726.612 78.368L726.327 79.3264C730.888 80.6849 734.345 81.8876 736.722 82.9333L737.124 82.018ZM726.612 78.368L726.907 77.4125C720.317 75.3772 714.968 73.3507 710.845 71.3374L710.406 72.236L709.968 73.1346C714.216 75.2093 719.671 77.2708 726.317 79.3235L726.612 78.368ZM710.406 72.236L710.845 71.3374C706.811 69.3674 703.33 66.4558 700.4 62.5809L699.602 63.184L698.805 63.7871C701.91 67.8936 705.631 71.0166 709.968 73.1346L710.406 72.236ZM699.602 63.184L700.4 62.5809C697.547 58.8077 696.076 53.8306 696.076 47.562H695.076H694.076C694.076 54.1414 695.623 59.5789 698.805 63.7871L699.602 63.184ZM695.076 47.562H696.076C696.076 38.3002 699.413 31.1595 706.055 26.0145L705.442 25.224L704.83 24.4334C697.65 29.9952 694.076 37.7465 694.076 47.562H695.076ZM705.442 25.224L706.062 26.0092C712.754 20.7306 721.521 18.048 732.452 18.048V17.048V16.048C721.191 16.048 711.952 18.8161 704.823 24.4388L705.442 25.224ZM732.452 17.048V18.048C743.583 18.048 752.445 20.7329 759.135 26.0092L759.754 25.224L760.374 24.4388C753.242 18.8138 743.903 16.048 732.452 16.048V17.048ZM759.754 25.224L759.142 26.0145C765.796 31.1695 769.378 38.3797 769.852 47.7584L770.85 47.708L771.849 47.6576C771.349 37.7643 767.534 29.9852 760.367 24.4334L759.754 25.224ZM770.85 47.708V46.708H743.84V47.708V48.708H770.85V47.708ZM743.84 47.708L744.839 47.6493C744.63 44.1058 743.311 41.2511 740.827 39.199L740.19 39.97L739.553 40.741C741.547 42.3876 742.661 44.6915 742.842 47.7667L743.84 47.708ZM740.19 39.97L740.847 39.2154C738.394 37.0827 735.275 36.05 731.576 36.05V37.05V38.05C734.885 38.05 737.509 38.964 739.534 40.7246L740.19 39.97ZM731.576 37.05V36.05C728.369 36.05 725.68 36.9343 723.61 38.7868L724.276 39.532L724.943 40.2772C726.571 38.8203 728.749 38.05 731.576 38.05V37.05ZM724.276 39.532L723.632 38.7671C721.503 40.5603 720.502 43.1612 720.502 46.394H721.502H722.502C722.502 43.5921 723.351 41.6184 724.92 40.2969L724.276 39.532ZM721.502 46.394H720.502C720.502 50.0948 722.28 52.9829 725.664 54.9918L726.174 54.132L726.685 53.2721C723.839 51.5824 722.502 49.3119 722.502 46.394H721.502ZM726.174 54.132L725.664 54.9918C728.877 56.8995 733.829 58.9221 740.467 61.0694L740.774 60.118L741.082 59.1666C734.482 57.0313 729.701 55.0632 726.685 53.2721L726.174 54.132ZM740.774 60.118L740.454 61.0653C747.049 63.2961 752.356 65.4206 756.387 67.4364L756.834 66.542L757.282 65.6476C753.137 63.5754 747.737 61.4173 741.095 59.1707L740.774 60.118ZM756.834 66.542L756.396 67.4406C760.435 69.4135 763.919 72.2811 766.848 76.0606L767.638 75.448L768.429 74.8354C765.323 70.8282 761.604 67.7584 757.273 65.6434L756.834 66.542ZM767.638 75.448L766.848 76.0606C769.699 79.7393 771.164 84.5204 771.164 90.486H772.164H773.164C773.164 84.1876 771.612 78.9433 768.429 74.8354L767.638 75.448ZM772.164 90.486H771.164C771.164 96.1437 769.706 101.262 766.793 105.865L767.638 106.4L768.483 106.935C771.606 102 773.164 96.5083 773.164 90.486H772.164ZM767.638 106.4L766.785 105.878C763.975 110.468 759.843 114.144 754.343 116.894L754.79 117.788L755.238 118.682C761.028 115.787 765.461 111.871 768.491 106.922L767.638 106.4ZM754.79 117.788L754.343 116.894C748.864 119.633 742.356 121.022 734.788 121.022V122.022V123.022C742.6 123.022 749.426 121.588 755.238 118.682L754.79 117.788Z" fill="url(#paint0_linear_684_300)" mask="url(#path-1-outside-1_684_300)"/>
</g>
<g filter="url(#filter1_d_684_300)">
<mask id="path-3-outside-2_684_300" maskUnits="userSpaceOnUse" x="795" y="11" width="768" height="113" fill="black">
<rect fill="white" x="795" y="11" width="768" height="113"/>
<path d="M796.154 102.02V81.872L842.29 15.88H870.176V80.412H882.148V102.02H870.176V121H845.21V102.02H796.154ZM846.962 43.328L822.434 80.412H846.962V43.328ZM894.377 66.25C894.377 49.5087 897.589 36.32 904.013 26.684C910.534 17.048 920.997 12.23 935.403 12.23C949.808 12.23 960.223 17.048 966.647 26.684C973.168 36.32 976.429 49.5087 976.429 66.25C976.429 83.186 973.168 96.472 966.647 106.108C960.223 115.744 949.808 120.562 935.403 120.562C920.997 120.562 910.534 115.744 904.013 106.108C897.589 96.472 894.377 83.186 894.377 66.25ZM951.901 66.25C951.901 56.4193 950.83 48.876 948.689 43.62C946.547 38.2667 942.119 35.59 935.403 35.59C928.687 35.59 924.258 38.2667 922.117 43.62C919.975 48.876 918.905 56.4193 918.905 66.25C918.905 72.8687 919.294 78.368 920.073 82.748C920.851 87.0307 922.409 90.5347 924.745 93.26C927.178 95.888 930.731 97.202 935.403 97.202C940.075 97.202 943.579 95.888 945.915 93.26C948.348 90.5347 949.954 87.0307 950.733 82.748C951.511 78.368 951.901 72.8687 951.901 66.25ZM1065.83 18.508V38.51H1038.67V121H1013.71V38.51H986.553V18.508H1065.83ZM1167.13 18.508V121H1142.16V78.806H1103.33V121H1078.36V18.508H1103.33V58.658H1142.16V18.508H1167.13ZM1241.06 101.728H1273.76V121H1216.09V18.508H1241.06V101.728ZM1322.75 122.022C1315.26 122.022 1308.54 120.805 1302.61 118.372C1296.67 115.939 1291.9 112.337 1288.3 107.568C1284.79 102.799 1282.94 97.056 1282.75 90.34H1309.32C1309.71 94.136 1311.02 97.056 1313.26 99.1C1315.5 101.047 1318.42 102.02 1322.02 102.02C1325.72 102.02 1328.64 101.193 1330.78 99.538C1332.92 97.786 1334 95.4013 1334 92.384C1334 89.8533 1333.12 87.7607 1331.37 86.106C1329.71 84.4513 1327.62 83.0887 1325.09 82.018C1322.66 80.9473 1319.15 79.7307 1314.58 78.368C1307.96 76.324 1302.56 74.28 1298.37 72.236C1294.19 70.192 1290.58 67.1747 1287.57 63.184C1284.55 59.1933 1283.04 53.986 1283.04 47.562C1283.04 38.0233 1286.5 30.5773 1293.41 25.224C1300.32 19.7733 1309.32 17.048 1320.42 17.048C1331.71 17.048 1340.81 19.7733 1347.72 25.224C1354.63 30.5773 1358.33 38.072 1358.82 47.708H1331.81C1331.61 44.3987 1330.39 41.8193 1328.16 39.97C1325.92 38.0233 1323.05 37.05 1319.54 37.05C1316.52 37.05 1314.09 37.8773 1312.24 39.532C1310.39 41.0893 1309.47 43.3767 1309.47 46.394C1309.47 49.7033 1311.02 52.2827 1314.14 54.132C1317.25 55.9813 1322.12 57.9767 1328.74 60.118C1335.36 62.3567 1340.71 64.498 1344.8 66.542C1348.98 68.586 1352.59 71.5547 1355.6 75.448C1358.62 79.3413 1360.13 84.354 1360.13 90.486C1360.13 96.326 1358.62 101.631 1355.6 106.4C1352.68 111.169 1348.4 114.965 1342.76 117.788C1337.11 120.611 1330.44 122.022 1322.75 122.022ZM1371.26 69.608C1371.26 59.4853 1373.45 50.482 1377.83 42.598C1382.21 34.6167 1388.29 28.436 1396.08 24.056C1403.96 19.5787 1412.87 17.34 1422.8 17.34C1434.96 17.34 1445.38 20.552 1454.04 26.976C1462.7 33.4 1468.5 42.16 1471.42 53.256H1443.97C1441.92 48.9733 1439 45.7127 1435.21 43.474C1431.51 41.2353 1427.27 40.116 1422.51 40.116C1414.82 40.116 1408.59 42.7927 1403.82 48.146C1399.05 53.4993 1396.66 60.6533 1396.66 69.608C1396.66 78.5627 1399.05 85.7167 1403.82 91.07C1408.59 96.4233 1414.82 99.1 1422.51 99.1C1427.27 99.1 1431.51 97.9807 1435.21 95.742C1439 93.5033 1441.92 90.2427 1443.97 85.96H1471.42C1468.5 97.056 1462.7 105.816 1454.04 112.24C1445.38 118.567 1434.96 121.73 1422.8 121.73C1412.87 121.73 1403.96 119.54 1396.08 115.16C1388.29 110.683 1382.21 104.502 1377.83 96.618C1373.45 88.734 1371.26 79.7307 1371.26 69.608ZM1523.79 122.022C1516.29 122.022 1509.58 120.805 1503.64 118.372C1497.7 115.939 1492.93 112.337 1489.33 107.568C1485.83 102.799 1483.98 97.056 1483.78 90.34H1510.36C1510.75 94.136 1512.06 97.056 1514.3 99.1C1516.54 101.047 1519.46 102.02 1523.06 102.02C1526.76 102.02 1529.68 101.193 1531.82 99.538C1533.96 97.786 1535.03 95.4013 1535.03 92.384C1535.03 89.8533 1534.15 87.7607 1532.4 86.106C1530.75 84.4513 1528.66 83.0887 1526.12 82.018C1523.69 80.9473 1520.19 79.7307 1515.61 78.368C1508.99 76.324 1503.59 74.28 1499.41 72.236C1495.22 70.192 1491.62 67.1747 1488.6 63.184C1485.59 59.1933 1484.08 53.986 1484.08 47.562C1484.08 38.0233 1487.53 30.5773 1494.44 25.224C1501.35 19.7733 1510.36 17.048 1521.45 17.048C1532.74 17.048 1541.84 19.7733 1548.75 25.224C1555.67 30.5773 1559.36 38.072 1559.85 47.708H1532.84C1532.65 44.3987 1531.43 41.8193 1529.19 39.97C1526.95 38.0233 1524.08 37.05 1520.58 37.05C1517.56 37.05 1515.13 37.8773 1513.28 39.532C1511.43 41.0893 1510.5 43.3767 1510.5 46.394C1510.5 49.7033 1512.06 52.2827 1515.17 54.132C1518.29 55.9813 1523.16 57.9767 1529.77 60.118C1536.39 62.3567 1541.75 64.498 1545.83 66.542C1550.02 68.586 1553.62 71.5547 1556.64 75.448C1559.66 79.3413 1561.16 84.354 1561.16 90.486C1561.16 96.326 1559.66 101.631 1556.64 106.4C1553.72 111.169 1549.44 114.965 1543.79 117.788C1538.15 120.611 1531.48 122.022 1523.79 122.022Z"/>
</mask>
<path d="M796.154 102.02H795.154V103.02H796.154V102.02ZM796.154 81.872L795.334 81.299L795.154 81.5571V81.872H796.154ZM842.29 15.88V14.88H841.769L841.47 15.307L842.29 15.88ZM870.176 15.88H871.176V14.88H870.176V15.88ZM870.176 80.412H869.176V81.412H870.176V80.412ZM882.148 80.412H883.148V79.412H882.148V80.412ZM882.148 102.02V103.02H883.148V102.02H882.148ZM870.176 102.02V101.02H869.176V102.02H870.176ZM870.176 121V122H871.176V121H870.176ZM845.21 121H844.21V122H845.21V121ZM845.21 102.02H846.21V101.02H845.21V102.02ZM846.962 43.328H847.962V40.0034L846.128 42.7763L846.962 43.328ZM822.434 80.412L821.6 79.8603L820.574 81.412H822.434V80.412ZM846.962 80.412V81.412H847.962V80.412H846.962ZM796.154 102.02H797.154V81.872H796.154H795.154V102.02H796.154ZM796.154 81.872L796.974 82.445L843.11 16.453L842.29 15.88L841.47 15.307L795.334 81.299L796.154 81.872ZM842.29 15.88V16.88H870.176V15.88V14.88H842.29V15.88ZM870.176 15.88H869.176V80.412H870.176H871.176V15.88H870.176ZM870.176 80.412V81.412H882.148V80.412V79.412H870.176V80.412ZM882.148 80.412H881.148V102.02H882.148H883.148V80.412H882.148ZM882.148 102.02V101.02H870.176V102.02V103.02H882.148V102.02ZM870.176 102.02H869.176V121H870.176H871.176V102.02H870.176ZM870.176 121V120H845.21V121V122H870.176V121ZM845.21 121H846.21V102.02H845.21H844.21V121H845.21ZM845.21 102.02V101.02H796.154V102.02V103.02H845.21V102.02ZM846.962 43.328L846.128 42.7763L821.6 79.8603L822.434 80.412L823.268 80.9637L847.796 43.8797L846.962 43.328ZM822.434 80.412V81.412H846.962V80.412V79.412H822.434V80.412ZM846.962 80.412H847.962V43.328H846.962H845.962V80.412H846.962ZM904.013 26.684L903.184 26.1235L903.181 26.1293L904.013 26.684ZM966.647 26.684L965.815 27.2387L965.818 27.2445L966.647 26.684ZM966.647 106.108L965.818 105.548L965.815 105.553L966.647 106.108ZM904.013 106.108L903.181 106.663L903.184 106.668L904.013 106.108ZM948.689 43.62L947.76 43.9914L947.763 43.9973L948.689 43.62ZM922.117 43.62L923.043 43.9973L923.045 43.9914L922.117 43.62ZM920.073 82.748L919.088 82.923L919.089 82.9269L920.073 82.748ZM924.745 93.26L923.985 93.9108L923.998 93.9253L924.011 93.9394L924.745 93.26ZM945.915 93.26L945.169 92.594L945.167 92.5956L945.915 93.26ZM950.733 82.748L951.717 82.9269L951.717 82.923L950.733 82.748ZM894.377 66.25H895.377C895.377 49.6224 898.569 36.6524 904.845 27.2387L904.013 26.684L903.181 26.1293C896.608 35.9876 893.377 49.395 893.377 66.25H894.377ZM904.013 26.684L904.841 27.2445C911.131 17.95 921.24 13.23 935.403 13.23V12.23V11.23C920.755 11.23 909.937 16.1459 903.184 26.1235L904.013 26.684ZM935.403 12.23V13.23C949.566 13.23 959.622 17.95 965.815 27.2387L966.647 26.684L967.479 26.1293C960.823 16.146 950.05 11.23 935.403 11.23V12.23ZM966.647 26.684L965.818 27.2445C972.189 36.6571 975.429 49.6247 975.429 66.25H976.429H977.429C977.429 49.3926 974.147 35.9829 967.475 26.1235L966.647 26.684ZM976.429 66.25H975.429C975.429 83.0727 972.188 96.1365 965.818 105.548L966.647 106.108L967.475 106.668C974.148 96.8075 977.429 83.2993 977.429 66.25H976.429ZM966.647 106.108L965.815 105.553C959.622 114.842 949.566 119.562 935.403 119.562V120.562V121.562C950.05 121.562 960.823 116.646 967.479 106.663L966.647 106.108ZM935.403 120.562V119.562C921.24 119.562 911.131 114.842 904.841 105.548L904.013 106.108L903.184 106.668C909.937 116.646 920.755 121.562 935.403 121.562V120.562ZM904.013 106.108L904.845 105.553C898.57 96.1412 895.377 83.0751 895.377 66.25H894.377H893.377C893.377 83.2969 896.607 96.8028 903.181 106.663L904.013 106.108ZM951.901 66.25H952.901C952.901 56.3707 951.828 48.6756 949.615 43.2427L948.689 43.62L947.763 43.9973C949.832 49.0764 950.901 56.4679 950.901 66.25H951.901ZM948.689 43.62L949.617 43.2486C948.475 40.3943 946.7 38.2053 944.278 36.7417C941.868 35.2848 938.89 34.59 935.403 34.59V35.59V36.59C938.632 36.59 941.226 37.2335 943.244 38.4533C945.251 39.6664 946.761 41.4923 947.76 43.9914L948.689 43.62ZM935.403 35.59V34.59C931.916 34.59 928.937 35.2848 926.527 36.7417C924.105 38.2053 922.33 40.3943 921.188 43.2486L922.117 43.62L923.045 43.9914C924.045 41.4923 925.554 39.6664 927.561 38.4533C929.58 37.2335 932.174 36.59 935.403 36.59V35.59ZM922.117 43.62L921.191 43.2427C918.977 48.6756 917.905 56.3707 917.905 66.25H918.905H919.905C919.905 56.4679 920.973 49.0764 923.043 43.9973L922.117 43.62ZM918.905 66.25H917.905C917.905 72.9019 918.295 78.4647 919.088 82.923L920.073 82.748L921.057 82.573C920.292 78.2713 919.905 72.8354 919.905 66.25H918.905ZM920.073 82.748L919.089 82.9269C919.892 87.3469 921.512 91.0249 923.985 93.9108L924.745 93.26L925.504 92.6092C923.306 90.0445 921.81 86.7144 921.057 82.5691L920.073 82.748ZM924.745 93.26L924.011 93.9394C926.687 96.8293 930.541 98.202 935.403 98.202V97.202V96.202C930.92 96.202 927.669 94.9467 925.478 92.5806L924.745 93.26ZM935.403 97.202V98.202C940.261 98.202 944.079 96.8301 946.662 93.9244L945.915 93.26L945.167 92.5956C943.078 94.9459 939.888 96.202 935.403 96.202V97.202ZM945.915 93.26L946.661 93.926C949.238 91.039 950.911 87.3558 951.717 82.9269L950.733 82.748L949.749 82.5691C948.997 86.7056 947.458 90.0303 945.169 92.594L945.915 93.26ZM950.733 82.748L951.717 82.923C952.51 78.4647 952.901 72.9019 952.901 66.25H951.901H950.901C950.901 72.8354 950.513 78.2713 949.748 82.573L950.733 82.748ZM1065.83 18.508H1066.83V17.508H1065.83V18.508ZM1065.83 38.51V39.51H1066.83V38.51H1065.83ZM1038.67 38.51V37.51H1037.67V38.51H1038.67ZM1038.67 121V122H1039.67V121H1038.67ZM1013.71 121H1012.71V122H1013.71V121ZM1013.71 38.51H1014.71V37.51H1013.71V38.51ZM986.553 38.51H985.553V39.51H986.553V38.51ZM986.553 18.508V17.508H985.553V18.508H986.553ZM1065.83 18.508H1064.83V38.51H1065.83H1066.83V18.508H1065.83ZM1065.83 38.51V37.51H1038.67V38.51V39.51H1065.83V38.51ZM1038.67 38.51H1037.67V121H1038.67H1039.67V38.51H1038.67ZM1038.67 121V120H1013.71V121V122H1038.67V121ZM1013.71 121H1014.71V38.51H1013.71H1012.71V121H1013.71ZM1013.71 38.51V37.51H986.553V38.51V39.51H1013.71V38.51ZM986.553 38.51H987.553V18.508H986.553H985.553V38.51H986.553ZM986.553 18.508V19.508H1065.83V18.508V17.508H986.553V18.508ZM1167.13 18.508H1168.13V17.508H1167.13V18.508ZM1167.13 121V122H1168.13V121H1167.13ZM1142.16 121H1141.16V122H1142.16V121ZM1142.16 78.806H1143.16V77.806H1142.16V78.806ZM1103.33 78.806V77.806H1102.33V78.806H1103.33ZM1103.33 121V122H1104.33V121H1103.33ZM1078.36 121H1077.36V122H1078.36V121ZM1078.36 18.508V17.508H1077.36V18.508H1078.36ZM1103.33 18.508H1104.33V17.508H1103.33V18.508ZM1103.33 58.658H1102.33V59.658H1103.33V58.658ZM1142.16 58.658V59.658H1143.16V58.658H1142.16ZM1142.16 18.508V17.508H1141.16V18.508H1142.16ZM1167.13 18.508H1166.13V121H1167.13H1168.13V18.508H1167.13ZM1167.13 121V120H1142.16V121V122H1167.13V121ZM1142.16 121H1143.16V78.806H1142.16H1141.16V121H1142.16ZM1142.16 78.806V77.806H1103.33V78.806V79.806H1142.16V78.806ZM1103.33 78.806H1102.33V121H1103.33H1104.33V78.806H1103.33ZM1103.33 121V120H1078.36V121V122H1103.33V121ZM1078.36 121H1079.36V18.508H1078.36H1077.36V121H1078.36ZM1078.36 18.508V19.508H1103.33V18.508V17.508H1078.36V18.508ZM1103.33 18.508H1102.33V58.658H1103.33H1104.33V18.508H1103.33ZM1103.33 58.658V59.658H1142.16V58.658V57.658H1103.33V58.658ZM1142.16 58.658H1143.16V18.508H1142.16H1141.16V58.658H1142.16ZM1142.16 18.508V19.508H1167.13V18.508V17.508H1142.16V18.508ZM1241.06 101.728H1240.06V102.728H1241.06V101.728ZM1273.76 101.728H1274.76V100.728H1273.76V101.728ZM1273.76 121V122H1274.76V121H1273.76ZM1216.09 121H1215.09V122H1216.09V121ZM1216.09 18.508V17.508H1215.09V18.508H1216.09ZM1241.06 18.508H1242.06V17.508H1241.06V18.508ZM1241.06 101.728V102.728H1273.76V101.728V100.728H1241.06V101.728ZM1273.76 101.728H1272.76V121H1273.76H1274.76V101.728H1273.76ZM1273.76 121V120H1216.09V121V122H1273.76V121ZM1216.09 121H1217.09V18.508H1216.09H1215.09V121H1216.09ZM1216.09 18.508V19.508H1241.06V18.508V17.508H1216.09V18.508ZM1241.06 18.508H1240.06V101.728H1241.06H1242.06V18.508H1241.06ZM1302.61 118.372L1302.23 119.297L1302.23 119.297L1302.61 118.372ZM1288.3 107.568L1287.49 108.16L1287.5 108.171L1288.3 107.568ZM1282.75 90.34V89.34H1281.72L1281.75 90.369L1282.75 90.34ZM1309.32 90.34L1310.32 90.238L1310.22 89.34H1309.32V90.34ZM1313.26 99.1L1312.59 99.8385L1312.6 99.8467L1312.61 99.8546L1313.26 99.1ZM1330.78 99.538L1331.39 100.329L1331.41 100.321L1331.42 100.312L1330.78 99.538ZM1331.37 86.106L1330.66 86.8131L1330.67 86.8232L1330.68 86.833L1331.37 86.106ZM1325.09 82.018L1324.69 82.9333L1324.69 82.9362L1324.7 82.939L1325.09 82.018ZM1314.58 78.368L1314.28 79.3235L1314.29 79.3264L1314.58 78.368ZM1298.37 72.236L1297.93 73.1346L1298.37 72.236ZM1287.57 63.184L1288.36 62.5809L1288.36 62.5809L1287.57 63.184ZM1293.41 25.224L1294.02 26.0146L1294.03 26.0092L1293.41 25.224ZM1347.72 25.224L1347.1 26.0092L1347.11 26.0145L1347.72 25.224ZM1358.82 47.708V48.708H1359.87L1359.81 47.6576L1358.82 47.708ZM1331.81 47.708L1330.81 47.7667L1330.86 48.708H1331.81V47.708ZM1328.16 39.97L1327.5 40.7246L1327.51 40.7329L1327.52 40.741L1328.16 39.97ZM1312.24 39.532L1312.89 40.2969L1312.9 40.2872L1312.91 40.2772L1312.24 39.532ZM1314.14 54.132L1314.65 53.2721L1314.65 53.2721L1314.14 54.132ZM1328.74 60.118L1329.06 59.1706L1329.05 59.1666L1328.74 60.118ZM1344.8 66.542L1344.35 67.4365L1344.36 67.4406L1344.8 66.542ZM1355.6 75.448L1354.81 76.0606L1354.81 76.0606L1355.6 75.448ZM1355.6 106.4L1354.76 105.865L1354.75 105.872L1354.75 105.878L1355.6 106.4ZM1342.76 117.788L1342.31 116.894L1342.31 116.894L1342.76 117.788ZM1322.75 122.022V121.022C1315.37 121.022 1308.78 119.823 1302.98 117.447L1302.61 118.372L1302.23 119.297C1308.3 121.788 1315.15 123.022 1322.75 123.022V122.022ZM1302.61 118.372L1302.98 117.447C1297.2 115.076 1292.58 111.581 1289.1 106.965L1288.3 107.568L1287.5 108.171C1291.22 113.094 1296.14 116.801 1302.23 119.297L1302.61 118.372ZM1288.3 107.568L1289.1 106.976C1285.74 102.392 1283.94 96.8525 1283.75 90.311L1282.75 90.34L1281.75 90.369C1281.95 97.2595 1283.85 103.206 1287.49 108.16L1288.3 107.568ZM1282.75 90.34V91.34H1309.32V90.34V89.34H1282.75V90.34ZM1309.32 90.34L1308.33 90.442C1308.73 94.4168 1310.13 97.5893 1312.59 99.8385L1313.26 99.1L1313.94 98.3615C1311.92 96.5227 1310.69 93.8552 1310.32 90.238L1309.32 90.34ZM1313.26 99.1L1312.61 99.8546C1315.06 101.992 1318.23 103.02 1322.02 103.02V102.02V101.02C1318.61 101.02 1315.94 100.102 1313.92 98.3454L1313.26 99.1ZM1322.02 102.02V103.02C1325.86 103.02 1329.02 102.161 1331.39 100.329L1330.78 99.538L1330.17 98.7467C1328.26 100.224 1325.58 101.02 1322.02 101.02V102.02ZM1330.78 99.538L1331.42 100.312C1333.81 98.3513 1335 95.6703 1335 92.384H1334H1333C1333 95.1323 1332.04 97.2207 1330.15 98.764L1330.78 99.538ZM1334 92.384H1335C1335 89.5937 1334.02 87.2329 1332.05 85.379L1331.37 86.106L1330.68 86.833C1332.22 88.2884 1333 90.113 1333 92.384H1334ZM1331.37 86.106L1332.07 85.3989C1330.31 83.6388 1328.11 82.2093 1325.48 81.097L1325.09 82.018L1324.7 82.939C1327.13 83.9681 1329.11 85.2639 1330.66 86.8131L1331.37 86.106ZM1325.09 82.018L1325.49 81.1027C1323 80.007 1319.45 78.7764 1314.86 77.4096L1314.58 78.368L1314.29 79.3264C1318.85 80.6849 1322.31 81.8876 1324.69 82.9333L1325.09 82.018ZM1314.58 78.368L1314.87 77.4125C1308.28 75.3772 1302.93 73.3507 1298.81 71.3374L1298.37 72.236L1297.93 73.1346C1302.18 75.2093 1307.64 77.2708 1314.28 79.3235L1314.58 78.368ZM1298.37 72.236L1298.81 71.3374C1294.78 69.3674 1291.29 66.4558 1288.36 62.5809L1287.57 63.184L1286.77 63.7871C1289.87 67.8936 1293.6 71.0166 1297.93 73.1346L1298.37 72.236ZM1287.57 63.184L1288.36 62.5809C1285.51 58.8077 1284.04 53.8306 1284.04 47.562H1283.04H1282.04C1282.04 54.1414 1283.59 59.5789 1286.77 63.7871L1287.57 63.184ZM1283.04 47.562H1284.04C1284.04 38.3002 1287.38 31.1595 1294.02 26.0145L1293.41 25.224L1292.79 24.4334C1285.62 29.9952 1282.04 37.7465 1282.04 47.562H1283.04ZM1293.41 25.224L1294.03 26.0092C1300.72 20.7306 1309.49 18.048 1320.42 18.048V17.048V16.048C1309.16 16.048 1299.92 18.8161 1292.79 24.4388L1293.41 25.224ZM1320.42 17.048V18.048C1331.55 18.048 1340.41 20.7329 1347.1 26.0092L1347.72 25.224L1348.34 24.4388C1341.21 18.8138 1331.87 16.048 1320.42 16.048V17.048ZM1347.72 25.224L1347.11 26.0145C1353.76 31.1695 1357.34 38.3797 1357.82 47.7584L1358.82 47.708L1359.81 47.6576C1359.31 37.7643 1355.5 29.9852 1348.33 24.4334L1347.72 25.224ZM1358.82 47.708V46.708H1331.81V47.708V48.708H1358.82V47.708ZM1331.81 47.708L1332.8 47.6493C1332.6 44.1058 1331.28 41.2511 1328.79 39.199L1328.16 39.97L1327.52 40.741C1329.51 42.3876 1330.63 44.6915 1330.81 47.7667L1331.81 47.708ZM1328.16 39.97L1328.81 39.2154C1326.36 37.0827 1323.24 36.05 1319.54 36.05V37.05V38.05C1322.85 38.05 1325.47 38.964 1327.5 40.7246L1328.16 39.97ZM1319.54 37.05V36.05C1316.33 36.05 1313.64 36.9343 1311.57 38.7868L1312.24 39.532L1312.91 40.2772C1314.54 38.8203 1316.71 38.05 1319.54 38.05V37.05ZM1312.24 39.532L1311.6 38.7671C1309.47 40.5603 1308.47 43.1612 1308.47 46.394H1309.47H1310.47C1310.47 43.5921 1311.32 41.6184 1312.89 40.2969L1312.24 39.532ZM1309.47 46.394H1308.47C1308.47 50.0948 1310.25 52.9829 1313.63 54.9918L1314.14 54.132L1314.65 53.2721C1311.8 51.5824 1310.47 49.3119 1310.47 46.394H1309.47ZM1314.14 54.132L1313.63 54.9918C1316.84 56.8995 1321.79 58.9221 1328.43 61.0694L1328.74 60.118L1329.05 59.1666C1322.45 57.0313 1317.67 55.0632 1314.65 53.2721L1314.14 54.132ZM1328.74 60.118L1328.42 61.0653C1335.01 63.2961 1340.32 65.4206 1344.35 67.4364L1344.8 66.542L1345.25 65.6476C1341.1 63.5754 1335.7 61.4173 1329.06 59.1707L1328.74 60.118ZM1344.8 66.542L1344.36 67.4406C1348.4 69.4135 1351.88 72.2811 1354.81 76.0606L1355.6 75.448L1356.39 74.8354C1353.29 70.8282 1349.57 67.7584 1345.24 65.6434L1344.8 66.542ZM1355.6 75.448L1354.81 76.0606C1357.66 79.7393 1359.13 84.5204 1359.13 90.486H1360.13H1361.13C1361.13 84.1876 1359.58 78.9433 1356.39 74.8354L1355.6 75.448ZM1360.13 90.486H1359.13C1359.13 96.1437 1357.67 101.262 1354.76 105.865L1355.6 106.4L1356.45 106.935C1359.57 102 1361.13 96.5083 1361.13 90.486H1360.13ZM1355.6 106.4L1354.75 105.878C1351.94 110.468 1347.81 114.144 1342.31 116.894L1342.76 117.788L1343.2 118.682C1348.99 115.787 1353.43 111.871 1356.46 106.922L1355.6 106.4ZM1342.76 117.788L1342.31 116.894C1336.83 119.633 1330.32 121.022 1322.75 121.022V122.022V123.022C1330.56 123.022 1337.39 121.588 1343.2 118.682L1342.76 117.788ZM1377.83 42.598L1378.7 43.0836L1378.71 43.0791L1377.83 42.598ZM1396.08 24.056L1396.57 24.9276L1396.57 24.9256L1396.08 24.056ZM1454.04 26.976L1454.64 26.1728L1454.64 26.1728L1454.04 26.976ZM1471.42 53.256V54.256H1472.71L1472.38 53.0015L1471.42 53.256ZM1443.97 53.256L1443.06 53.6867L1443.34 54.256H1443.97V53.256ZM1435.21 43.474L1434.69 44.3296L1434.7 44.3354L1435.21 43.474ZM1403.82 48.146L1404.56 48.8112L1404.56 48.8112L1403.82 48.146ZM1403.82 91.07L1403.07 91.7352L1403.82 91.07ZM1435.21 95.742L1434.7 94.8806L1434.69 94.8865L1435.21 95.742ZM1443.97 85.96V84.96H1443.34L1443.06 85.5293L1443.97 85.96ZM1471.42 85.96L1472.38 86.2145L1472.71 84.96H1471.42V85.96ZM1454.04 112.24L1454.63 113.048L1454.64 113.043L1454.04 112.24ZM1396.08 115.16L1395.58 116.027L1395.59 116.031L1395.59 116.034L1396.08 115.16ZM1377.83 96.618L1378.7 96.1324L1378.7 96.1324L1377.83 96.618ZM1371.26 69.608H1372.26C1372.26 59.6341 1374.42 50.8016 1378.7 43.0836L1377.83 42.598L1376.96 42.1124C1372.48 50.1624 1370.26 59.3366 1370.26 69.608H1371.26ZM1377.83 42.598L1378.71 43.0791C1383 35.2582 1388.95 29.2142 1396.57 24.9276L1396.08 24.056L1395.59 23.1844C1387.64 27.6578 1381.42 33.9752 1376.95 42.1169L1377.83 42.598ZM1396.08 24.056L1396.57 24.9256C1404.29 20.5417 1413.03 18.34 1422.8 18.34V17.34V16.34C1412.71 16.34 1403.63 18.6156 1395.59 23.1864L1396.08 24.056ZM1422.8 17.34V18.34C1434.78 18.34 1444.98 21.4991 1453.45 27.7792L1454.04 26.976L1454.64 26.1728C1445.78 19.6048 1435.15 16.34 1422.8 16.34V17.34ZM1454.04 26.976L1453.45 27.7792C1461.91 34.0588 1467.58 42.6192 1470.45 53.5105L1471.42 53.256L1472.38 53.0015C1469.41 41.7008 1463.49 32.7412 1454.64 26.1728L1454.04 26.976ZM1471.42 53.256V52.256H1443.97V53.256V54.256H1471.42V53.256ZM1443.97 53.256L1444.87 52.8253C1442.75 48.3775 1439.7 44.9602 1435.72 42.6126L1435.21 43.474L1434.7 44.3354C1438.31 46.4651 1441.1 49.5692 1443.06 53.6867L1443.97 53.256ZM1435.21 43.474L1435.73 42.6185C1431.85 40.2757 1427.44 39.116 1422.51 39.116V40.116V41.116C1427.11 41.116 1431.16 42.1949 1434.69 44.3295L1435.21 43.474ZM1422.51 40.116V39.116C1414.55 39.116 1408.04 41.8977 1403.07 47.4808L1403.82 48.146L1404.56 48.8112C1409.13 43.6877 1415.08 41.116 1422.51 41.116V40.116ZM1403.82 48.146L1403.07 47.4808C1398.1 53.0597 1395.66 60.4714 1395.66 69.608H1396.66H1397.66C1397.66 60.8352 1400 53.939 1404.56 48.8112L1403.82 48.146ZM1396.66 69.608H1395.66C1395.66 78.7445 1398.1 86.1563 1403.07 91.7352L1403.82 91.07L1404.56 90.4048C1400 85.277 1397.66 78.3808 1397.66 69.608H1396.66ZM1403.82 91.07L1403.07 91.7352C1408.04 97.3183 1414.55 100.1 1422.51 100.1V99.1V98.1C1415.08 98.1 1409.13 95.5283 1404.56 90.4048L1403.82 91.07ZM1422.51 99.1V100.1C1427.44 100.1 1431.85 98.9403 1435.73 96.5975L1435.21 95.742L1434.69 94.8865C1431.16 97.0211 1427.11 98.1 1422.51 98.1V99.1ZM1435.21 95.742L1435.72 96.6034C1439.7 94.2558 1442.75 90.8385 1444.87 86.3907L1443.97 85.96L1443.06 85.5293C1441.1 89.6468 1438.31 92.7509 1434.7 94.8806L1435.21 95.742ZM1443.97 85.96V86.96H1471.42V85.96V84.96H1443.97V85.96ZM1471.42 85.96L1470.45 85.7055C1467.58 96.5968 1461.91 105.157 1453.45 111.437L1454.04 112.24L1454.64 113.043C1463.49 106.475 1469.41 97.5152 1472.38 86.2145L1471.42 85.96ZM1454.04 112.24L1453.45 111.432C1444.98 117.618 1434.78 120.73 1422.8 120.73V121.73V122.73C1435.15 122.73 1445.77 119.516 1454.63 113.048L1454.04 112.24ZM1422.8 121.73V120.73C1413.02 120.73 1404.29 118.575 1396.57 114.286L1396.08 115.16L1395.59 116.034C1403.64 120.505 1412.72 122.73 1422.8 122.73V121.73ZM1396.08 115.16L1396.58 114.293C1388.95 109.907 1383 103.858 1378.7 96.1324L1377.83 96.618L1376.96 97.1036C1381.42 105.146 1387.64 111.459 1395.58 116.027L1396.08 115.16ZM1377.83 96.618L1378.7 96.1324C1374.42 88.4144 1372.26 79.5819 1372.26 69.608H1371.26H1370.26C1370.26 79.8794 1372.48 89.0536 1376.96 97.1036L1377.83 96.618ZM1503.64 118.372L1503.26 119.297L1503.26 119.297L1503.64 118.372ZM1489.33 107.568L1488.53 108.16L1488.53 108.171L1489.33 107.568ZM1483.78 90.34V89.34H1482.75L1482.78 90.369L1483.78 90.34ZM1510.36 90.34L1511.35 90.238L1511.26 89.34H1510.36V90.34ZM1514.3 99.1L1513.62 99.8385L1513.63 99.8467L1513.64 99.8546L1514.3 99.1ZM1531.82 99.538L1532.43 100.329L1532.44 100.321L1532.45 100.312L1531.82 99.538ZM1532.4 86.106L1531.7 86.8131L1531.71 86.8232L1531.72 86.833L1532.4 86.106ZM1526.12 82.018L1525.72 82.9333L1525.73 82.9362L1525.73 82.939L1526.12 82.018ZM1515.61 78.368L1515.32 79.3235L1515.33 79.3264L1515.61 78.368ZM1499.41 72.236L1498.97 73.1346L1499.41 72.236ZM1488.6 63.184L1489.4 62.5809L1489.4 62.5809L1488.6 63.184ZM1494.44 25.224L1495.05 26.0146L1495.06 26.0092L1494.44 25.224ZM1548.75 25.224L1548.14 26.0092L1548.14 26.0145L1548.75 25.224ZM1559.85 47.708V48.708H1560.9L1560.85 47.6576L1559.85 47.708ZM1532.84 47.708L1531.84 47.7667L1531.9 48.708H1532.84V47.708ZM1529.19 39.97L1528.53 40.7246L1528.54 40.7329L1528.55 40.741L1529.19 39.97ZM1513.28 39.532L1513.92 40.2969L1513.93 40.2872L1513.94 40.2772L1513.28 39.532ZM1515.17 54.132L1515.68 53.2721L1515.68 53.2721L1515.17 54.132ZM1529.77 60.118L1530.09 59.1706L1530.08 59.1666L1529.77 60.118ZM1545.83 66.542L1545.39 67.4365L1545.4 67.4406L1545.83 66.542ZM1556.64 75.448L1555.85 76.0606L1555.85 76.0606L1556.64 75.448ZM1556.64 106.4L1555.79 105.865L1555.79 105.872L1555.79 105.878L1556.64 106.4ZM1543.79 117.788L1543.34 116.894L1543.34 116.894L1543.79 117.788ZM1523.79 122.022V121.022C1516.4 121.022 1509.82 119.823 1504.02 117.447L1503.64 118.372L1503.26 119.297C1509.34 121.788 1516.19 123.022 1523.79 123.022V122.022ZM1503.64 118.372L1504.02 117.447C1498.24 115.076 1493.62 111.581 1490.13 106.965L1489.33 107.568L1488.53 108.171C1492.25 113.094 1497.17 116.801 1503.26 119.297L1503.64 118.372ZM1489.33 107.568L1490.14 106.976C1486.77 102.392 1484.97 96.8525 1484.78 90.311L1483.78 90.34L1482.78 90.369C1482.98 97.2595 1484.89 103.206 1488.53 108.16L1489.33 107.568ZM1483.78 90.34V91.34H1510.36V90.34V89.34H1483.78V90.34ZM1510.36 90.34L1509.36 90.442C1509.77 94.4168 1511.16 97.5893 1513.62 99.8385L1514.3 99.1L1514.97 98.3615C1512.96 96.5227 1511.72 93.8552 1511.35 90.238L1510.36 90.34ZM1514.3 99.1L1513.64 99.8546C1516.1 101.992 1519.27 103.02 1523.06 103.02V102.02V101.02C1519.64 101.02 1516.97 100.102 1514.95 98.3454L1514.3 99.1ZM1523.06 102.02V103.02C1526.9 103.02 1530.06 102.161 1532.43 100.329L1531.82 99.538L1531.21 98.7467C1529.3 100.224 1526.62 101.02 1523.06 101.02V102.02ZM1531.82 99.538L1532.45 100.312C1534.85 98.3513 1536.03 95.6703 1536.03 92.384H1535.03H1534.03C1534.03 95.1323 1533.07 97.2207 1531.19 98.764L1531.82 99.538ZM1535.03 92.384H1536.03C1536.03 89.5937 1535.05 87.2329 1533.09 85.379L1532.4 86.106L1531.72 86.833C1533.26 88.2884 1534.03 90.113 1534.03 92.384H1535.03ZM1532.4 86.106L1533.11 85.3989C1531.35 83.6388 1529.14 82.2093 1526.51 81.097L1526.12 82.018L1525.73 82.939C1528.17 83.9681 1530.15 85.2639 1531.7 86.8131L1532.4 86.106ZM1526.12 82.018L1526.53 81.1027C1524.04 80.007 1520.49 78.7764 1515.9 77.4096L1515.61 78.368L1515.33 79.3264C1519.89 80.6849 1523.35 81.8876 1525.72 82.9333L1526.12 82.018ZM1515.61 78.368L1515.91 77.4125C1509.32 75.3772 1503.97 73.3507 1499.85 71.3374L1499.41 72.236L1498.97 73.1346C1503.22 75.2093 1508.67 77.2708 1515.32 79.3235L1515.61 78.368ZM1499.41 72.236L1499.85 71.3374C1495.81 69.3674 1492.33 66.4558 1489.4 62.5809L1488.6 63.184L1487.8 63.7871C1490.91 67.8936 1494.63 71.0166 1498.97 73.1346L1499.41 72.236ZM1488.6 63.184L1489.4 62.5809C1486.55 58.8077 1485.08 53.8306 1485.08 47.562H1484.08H1483.08C1483.08 54.1414 1484.62 59.5789 1487.8 63.7871L1488.6 63.184ZM1484.08 47.562H1485.08C1485.08 38.3002 1488.41 31.1595 1495.05 26.0145L1494.44 25.224L1493.83 24.4334C1486.65 29.9952 1483.08 37.7465 1483.08 47.562H1484.08ZM1494.44 25.224L1495.06 26.0092C1501.75 20.7306 1510.52 18.048 1521.45 18.048V17.048V16.048C1510.19 16.048 1500.95 18.8161 1493.82 24.4388L1494.44 25.224ZM1521.45 17.048V18.048C1532.58 18.048 1541.45 20.7329 1548.14 26.0092L1548.75 25.224L1549.37 24.4388C1542.24 18.8138 1532.9 16.048 1521.45 16.048V17.048ZM1548.75 25.224L1548.14 26.0145C1554.8 31.1695 1558.38 38.3797 1558.85 47.7584L1559.85 47.708L1560.85 47.6576C1560.35 37.7643 1556.53 29.9852 1549.37 24.4334L1548.75 25.224ZM1559.85 47.708V46.708H1532.84V47.708V48.708H1559.85V47.708ZM1532.84 47.708L1533.84 47.6493C1533.63 44.1058 1532.31 41.2511 1529.83 39.199L1529.19 39.97L1528.55 40.741C1530.55 42.3876 1531.66 44.6915 1531.84 47.7667L1532.84 47.708ZM1529.19 39.97L1529.85 39.2154C1527.39 37.0827 1524.28 36.05 1520.58 36.05V37.05V38.05C1523.89 38.05 1526.51 38.964 1528.53 40.7246L1529.19 39.97ZM1520.58 37.05V36.05C1517.37 36.05 1514.68 36.9343 1512.61 38.7868L1513.28 39.532L1513.94 40.2772C1515.57 38.8203 1517.75 38.05 1520.58 38.05V37.05ZM1513.28 39.532L1512.63 38.7671C1510.5 40.5603 1509.5 43.1612 1509.5 46.394H1510.5H1511.5C1511.5 43.5921 1512.35 41.6184 1513.92 40.2969L1513.28 39.532ZM1510.5 46.394H1509.5C1509.5 50.0948 1511.28 52.9829 1514.66 54.9918L1515.17 54.132L1515.68 53.2721C1512.84 51.5824 1511.5 49.3119 1511.5 46.394H1510.5ZM1515.17 54.132L1514.66 54.9918C1517.88 56.8995 1522.83 58.9221 1529.47 61.0694L1529.77 60.118L1530.08 59.1666C1523.48 57.0313 1518.7 55.0632 1515.68 53.2721L1515.17 54.132ZM1529.77 60.118L1529.45 61.0653C1536.05 63.2961 1541.36 65.4206 1545.39 67.4364L1545.83 66.542L1546.28 65.6476C1542.14 63.5754 1536.74 61.4173 1530.09 59.1707L1529.77 60.118ZM1545.83 66.542L1545.4 67.4406C1549.44 69.4135 1552.92 72.2811 1555.85 76.0606L1556.64 75.448L1557.43 74.8354C1554.32 70.8282 1550.6 67.7584 1546.27 65.6434L1545.83 66.542ZM1556.64 75.448L1555.85 76.0606C1558.7 79.7393 1560.16 84.5204 1560.16 90.486H1561.16H1562.16C1562.16 84.1876 1560.61 78.9433 1557.43 74.8354L1556.64 75.448ZM1561.16 90.486H1560.16C1560.16 96.1437 1558.71 101.262 1555.79 105.865L1556.64 106.4L1557.48 106.935C1560.61 102 1562.16 96.5083 1562.16 90.486H1561.16ZM1556.64 106.4L1555.79 105.878C1552.98 110.468 1548.84 114.144 1543.34 116.894L1543.79 117.788L1544.24 118.682C1550.03 115.787 1554.46 111.871 1557.49 106.922L1556.64 106.4ZM1543.79 117.788L1543.34 116.894C1537.86 119.633 1531.36 121.022 1523.79 121.022V122.022V123.022C1531.6 123.022 1538.43 121.588 1544.24 118.682L1543.79 117.788Z" fill="url(#paint1_linear_684_300)" mask="url(#path-3-outside-2_684_300)"/>
</g>
<defs>
<filter id="filter0_d_684_300" x="6.15381" y="11.23" width="777.011" height="119.792" filterUnits="userSpaceOnUse" color-interpolation-filters="sRGB">
<feFlood flood-opacity="0" result="BackgroundImageFix"/>
<feColorMatrix in="SourceAlpha" type="matrix" values="0 0 0 0 0 0 0 0 0 0 0 0 0 0 0 0 0 0 127 0" result="hardAlpha"/>
<feOffset dx="6" dy="4"/>
<feGaussianBlur stdDeviation="2"/>
<feComposite in2="hardAlpha" operator="out"/>
<feColorMatrix type="matrix" values="0 0 0 0 0 0 0 0 0 0 0 0 0 0 0 0 0 0 0.25 0"/>
<feBlend mode="normal" in2="BackgroundImageFix" result="effect1_dropShadow_684_300"/>
<feBlend mode="normal" in="SourceGraphic" in2="effect1_dropShadow_684_300" result="shape"/>
</filter>
<filter id="filter1_d_684_300" x="795.154" y="11.23" width="777.011" height="119.792" filterUnits="userSpaceOnUse" color-interpolation-filters="sRGB">
<feFlood flood-opacity="0" result="BackgroundImageFix"/>
<feColorMatrix in="SourceAlpha" type="matrix" values="0 0 0 0 0 0 0 0 0 0 0 0 0 0 0 0 0 0 127 0" result="hardAlpha"/>
<feOffset dx="6" dy="4"/>
<feGaussianBlur stdDeviation="2"/>
<feComposite in2="hardAlpha" operator="out"/>
<feColorMatrix type="matrix" values="0 0 0 0 0 0 0 0 0 0 0 0 0 0 0 0 0 0 0.25 0"/>
<feBlend mode="normal" in2="BackgroundImageFix" result="effect1_dropShadow_684_300"/>
<feBlend mode="normal" in="SourceGraphic" in2="effect1_dropShadow_684_300" result="shape"/>
</filter>
<linearGradient id="paint0_linear_684_300" x1="394.5" y1="139" x2="394.5" y2="0" gradientUnits="userSpaceOnUse">
<stop stop-color="#002D57"/>
<stop offset="0.25" stop-color="#1A5D89"/>
<stop offset="0.5" stop-color="#DDB518"/>
<stop offset="1" stop-color="#FEE373"/>
</linearGradient>
<linearGradient id="paint1_linear_684_300" x1="1183.5" y1="139" x2="1183.5" y2="0" gradientUnits="userSpaceOnUse">
<stop stop-color="#FEE373"/>
<stop offset="0.5" stop-color="#DDB518"/>
<stop offset="0.75" stop-color="#1A5D89"/>
<stop offset="1" stop-color="#002D57"/>
</linearGradient>
</defs>
</svg>
