<?xml version="1.0" encoding="UTF-8"?>
<svg version="1.1" xmlns="http://www.w3.org/2000/svg" width="55" height="42">
<path d="M0 0 C2.97 0 5.94 0 9 0 C9 5.61 9 11.22 9 17 C9.66 17 10.32 17 11 17 C11.33 14.03 11.66 11.06 12 8 C12.99 7.67 13.98 7.34 15 7 C15 6.34 15 5.68 15 5 C20.18716718 3.47962341 23.64869694 2.6919037 29 4 C29.94875 4.185625 30.8975 4.37125 31.875 4.5625 C32.57625 4.706875 33.2775 4.85125 34 5 C34.625 7.375 34.625 7.375 35 10 C34.34 10.66 33.68 11.32 33 12 C33 12.99 33 13.98 33 15 C33 15.99 33 16.98 33 18 C33.99 18 34.98 18 36 18 C36.625 20.375 36.625 20.375 37 23 C36.34 23.66 35.68 24.32 35 25 C35.3185177 27.10820797 35.3185177 27.10820797 36 29 C33.5842968 31.76080366 31.72375267 32.9171202 28.06640625 33.3359375 C24.99390644 33.37282225 22.04937001 33.38736458 19 33 C18.34 32.34 17.68 31.68 17 31 C16.67 32.32 16.34 33.64 16 35 C14.02 35 12.04 35 10 35 C9.67 37.31 9.34 39.62 9 42 C7.02 42 5.04 42 3 42 C3 39.69 3 37.38 3 35 C-3.6 35 -10.2 35 -17 35 C-17 24.0644688 -14.79379421 16.79379421 -7 9 C-6.71125 8.175 -6.4225 7.35 -6.125 6.5 C-4.79978658 3.55508128 -3.88609006 3.21029583 -1 2 C-0.67 1.34 -0.34 0.68 0 0 Z M25 9 C25.33 9.99 25.66 10.98 26 12 C26.99 11.67 27.98 11.34 29 11 C28.67 10.34 28.34 9.68 28 9 C27.01 9 26.02 9 25 9 Z M2 11 C-0.83254847 14.1980386 -2.44564408 17.06229835 -4 21 C-4.98020375 22.0194119 -5.97803008 23.02246356 -7 24 C-7.33 24.99 -7.66 25.98 -8 27 C-8.66 27.66 -9.32 28.32 -10 29 C-5.71 29 -1.42 29 3 29 C3 23.06 3 17.12 3 11 C2.67 11 2.34 11 2 11 Z M25 15 C25 15.66 25 16.32 25 17 C21.86650268 18.04449911 21.01031744 17.93423645 18 17 C17.66501699 19.33165034 17.66501699 19.33165034 18 22 C19.89584109 24.31377147 19.89584109 24.31377147 22 26 C22.2475 25.360625 22.495 24.72125 22.75 24.0625 C24 22 24 22 26.125 21.25 C26.74375 21.1675 27.3625 21.085 28 21 C27.34 19.02 26.68 17.04 26 15 C25.67 15 25.34 15 25 15 Z M9 18 C9 21.63 9 25.26 9 29 C10.32 28.67 11.64 28.34 13 28 C12.34 28 11.68 28 11 28 C10.67 24.7 10.34 21.4 10 18 C9.67 18 9.34 18 9 18 Z " fill="#DAB830" transform="translate(17,0)"/>
<path d="M0 0 C0.94875 0.185625 1.8975 0.37125 2.875 0.5625 C3.57625 0.706875 4.2775 0.85125 5 1 C5.625 3.375 5.625 3.375 6 6 C5.34 6.66 4.68 7.32 4 8 C4 8.99 4 9.98 4 11 C4 11.99 4 12.98 4 14 C4.99 14 5.98 14 7 14 C7.625 16.375 7.625 16.375 8 19 C7.34 19.66 6.68 20.32 6 21 C6.3185177 23.10820797 6.3185177 23.10820797 7 25 C4.5842968 27.76080366 2.72375267 28.9171202 -0.93359375 29.3359375 C-4.00609356 29.37282225 -6.95062999 29.38736458 -10 29 C-10.66 28.34 -11.32 27.68 -12 27 C-12.33 28.32 -12.66 29.64 -13 31 C-14.98 31 -16.96 31 -19 31 C-17.68 30.67 -16.36 30.34 -15 30 C-15.39954845 26.40424396 -15.39954845 26.40424396 -17.5 23.625 C-19.44235584 21.52078117 -19.48301599 20.13437934 -19.6875 17.3125 C-19.75324219 16.50425781 -19.81898437 15.69601563 -19.88671875 14.86328125 C-19.92410156 14.24839844 -19.96148438 13.63351563 -20 13 C-19.34 13 -18.68 13 -18 13 C-17.67 10.03 -17.34 7.06 -17 4 C-16.01 3.67 -15.02 3.34 -14 3 C-14 2.34 -14 1.68 -14 1 C-8.81283282 -0.52037659 -5.35130306 -1.3080963 0 0 Z M-4 5 C-3.67 5.99 -3.34 6.98 -3 8 C-2.01 7.67 -1.02 7.34 0 7 C-0.33 6.34 -0.66 5.68 -1 5 C-1.99 5 -2.98 5 -4 5 Z M-4 11 C-4 11.66 -4 12.32 -4 13 C-7.13349732 14.04449911 -7.98968256 13.93423645 -11 13 C-11.33498301 15.33165034 -11.33498301 15.33165034 -11 18 C-9.10415891 20.31377147 -9.10415891 20.31377147 -7 22 C-6.7525 21.360625 -6.505 20.72125 -6.25 20.0625 C-5 18 -5 18 -2.875 17.25 C-2.25625 17.1675 -1.6375 17.085 -1 17 C-1.66 15.02 -2.32 13.04 -3 11 C-3.33 11 -3.66 11 -4 11 Z " fill="#2A2A29" transform="translate(46,4)"/>
<path d="M0 0 C1.32 0.66 2.64 1.32 4 2 C3.175 2.721875 2.35 3.44375 1.5 4.1875 C-1.19156294 6.71286891 -1.19156294 6.71286891 -1.4375 9.625 C-1.11439805 12.25608714 -1.11439805 12.25608714 1 15 C4.37350049 16.08916154 4.37350049 16.08916154 8 16 C10.94572605 13.82946501 11.84060941 12.47817177 13 9 C13.99 9 14.98 9 16 9 C16.625 11.375 16.625 11.375 17 14 C16.34 14.66 15.68 15.32 15 16 C15.3185177 18.10820797 15.3185177 18.10820797 16 20 C13.54438955 22.80641195 11.72617673 23.93578671 7.99609375 24.265625 C4.98876484 24.25142274 2.00220998 24.17237569 -1 24 C-0.95875 23.20980469 -0.9175 22.41960938 -0.875 21.60546875 C-0.91625 20.74566406 -0.9575 19.88585937 -1 19 C-1.66 18.443125 -2.32 17.88625 -3 17.3125 C-5.78765268 14.08927659 -5.61392703 11.57624344 -5.47265625 7.41796875 C-4.72918715 3.61460202 -3.04471763 2.28353822 0 0 Z " fill="#3A3E3F" transform="translate(37,9)"/>
<path d="M0 0 C6.27 0 12.54 0 19 0 C19 1.65 19 3.3 19 5 C21.31 5 23.62 5 26 5 C26 7.64 26 10.28 26 13 C24.02 13 22.04 13 20 13 C20 10.69 20 8.38 20 6 C13.4 6 6.8 6 0 6 C0 4.02 0 2.04 0 0 Z " fill="#14152C" transform="translate(0,29)"/>
<path d="M0 0 C1.94268841 2.91403262 3.46395304 5.85808576 5 9 C4.071875 10.11375 4.071875 10.11375 3.125 11.25 C1.00268086 13.81368029 1.00268086 13.81368029 -0.125 16.25 C-1 18 -1 18 -3 19 C-5.3329866 19.04022391 -7.66706666 19.04320247 -10 19 C-9.85973449 11.42566219 -6.84014188 6.73439443 -2 1 C-1.34 0.67 -0.68 0.34 0 0 Z " fill="#CFB22E" transform="translate(10,10)"/>
<path d="M0 0 C2.97 0 5.94 0 9 0 C9 2.31 9 4.62 9 7 C7.02 7 5.04 7 3 7 C2.8453125 8.3921875 2.8453125 8.3921875 2.6875 9.8125 C1.97641216 13.10936181 1.49186196 13.92344837 -1 16 C-1.33 16.66 -1.66 17.32 -2 18 C-5.23649225 14.45029882 -7 11.89183894 -7 7 C-4.89971854 3.62454766 -3.79797116 2.26599039 0 1 C0 0.67 0 0.34 0 0 Z " fill="#033864" transform="translate(17,0)"/>
<path d="M0 0 C7.42857143 -0.14285714 7.42857143 -0.14285714 11 1 C12.22159091 7.35227273 12.22159091 7.35227273 11.1875 10.375 C10 12 10 12 8 13 C6.00039988 13.039992 3.99952758 13.04346799 2 13 C1.67 12.01 1.34 11.02 1 10 C2.65 9.67 4.3 9.34 6 9 C5.34 7.68 4.68 6.36 4 5 C3.34 5 2.68 5 2 5 C1.67 5.66 1.34 6.32 1 7 C0.01 6.34 -0.98 5.68 -2 5 C-1.34 3.35 -0.68 1.7 0 0 Z " fill="#C9AE21" transform="translate(38,12)"/>
<path d="M0 0 C1.32 0.33 2.64 0.66 4 1 C4.0825 2.2375 4.165 3.475 4.25 4.75 C4.72537594 8.77295761 5.91967413 10.31713554 9 13 C9 13.99 9 14.98 9 16 C7.68 16.33 6.36 16.66 5 17 C5 17.99 5 18.98 5 20 C3.02 20 1.04 20 -1 20 C0.32 19.67 1.64 19.34 3 19 C2.60045155 15.40424396 2.60045155 15.40424396 0.5 12.625 C-1.44235584 10.52078117 -1.48301599 9.13437934 -1.6875 6.3125 C-1.75324219 5.50425781 -1.81898437 4.69601563 -1.88671875 3.86328125 C-1.92410156 3.24839844 -1.96148438 2.63351563 -2 2 C-1.34 2 -0.68 2 0 2 C0 1.34 0 0.68 0 0 Z " fill="#4F5253" transform="translate(28,15)"/>
<path d="M0 0 C1.32 0.66 2.64 1.32 4 2 C3.175 2.721875 2.35 3.44375 1.5 4.1875 C-1.19156294 6.71286891 -1.19156294 6.71286891 -1.4375 9.625 C-1.11439805 12.25608714 -1.11439805 12.25608714 1 15 C1.99 16.485 1.99 16.485 3 18 C2.34 18.66 1.68 19.32 1 20 C-4.64535585 16.47165259 -4.64535585 16.47165259 -5.57421875 12.6171875 C-5.72548979 9.12230477 -5.80497977 6.24481408 -3.86328125 3.2421875 C-2.5 1.875 -2.5 1.875 0 0 Z " fill="#1A527A" transform="translate(37,9)"/>
<path d="M0 0 C4.95 0 9.9 0 15 0 C15 1.65 15 3.3 15 5 C10.05 5 5.1 5 0 5 C0 3.35 0 1.7 0 0 Z " fill="#1A5C88" transform="translate(0,29)"/>
<path d="M0 0 C3.96 0 7.92 0 12 0 C12 1.65 12 3.3 12 5 C8.04 5 4.08 5 0 5 C0 3.35 0 1.7 0 0 Z " fill="#F9E87D" transform="translate(19,29)"/>
<path d="M0 0 C1.98 0 3.96 0 6 0 C6 3.3 6 6.6 6 10 C4.02 10 2.04 10 0 10 C0 6.7 0 3.4 0 0 Z " fill="#03325F" transform="translate(20,19)"/>
<path d="M0 0 C0.99 0 1.98 0 3 0 C3.33 1.65 3.66 3.3 4 5 C-2.89715536 10.88183807 -2.89715536 10.88183807 -7.5 11.375 C-8.325 11.25125 -9.15 11.1275 -10 11 C-10 10.34 -10 9.68 -10 9 C-9.44570313 8.76925781 -8.89140625 8.53851563 -8.3203125 8.30078125 C-3.56768485 6.25432116 -3.56768485 6.25432116 -0.5 2.25 C-0.335 1.5075 -0.17 0.765 0 0 Z " fill="#042E57" transform="translate(50,18)"/>
<path d="M0 0 C2 1 2 1 2.875 3.3125 C3 6 3 6 1.4375 8.3125 C-1.58388508 10.40422813 -3.39991481 10.32728047 -7 10 C-7.33 9.01 -7.66 8.02 -8 7 C-7.236875 6.95875 -6.47375 6.9175 -5.6875 6.875 C-2.67594887 6.22176391 -2.67594887 6.22176391 -1.1875 2.9375 C-0.795625 1.968125 -0.40375 0.99875 0 0 Z " fill="#D2B83D" transform="translate(47,15)"/>
<path d="M0 0 C0.33 0 0.66 0 1 0 C1.02578125 0.84304688 1.0515625 1.68609375 1.078125 2.5546875 C1.13484375 3.65039062 1.1915625 4.74609375 1.25 5.875 C1.29640625 6.96554688 1.3428125 8.05609375 1.390625 9.1796875 C1.68846128 12.1332065 1.68846128 12.1332065 4.046875 13.3828125 C4.69140625 13.58648437 5.3359375 13.79015625 6 14 C5.67 15.98 5.34 17.96 5 20 C3.02 20 1.04 20 -1 20 C0.32 19.67 1.64 19.34 3 19 C2.60045155 15.40424396 2.60045155 15.40424396 0.5 12.625 C-1.44235584 10.52078117 -1.48301599 9.13437934 -1.6875 6.3125 C-1.75324219 5.50425781 -1.81898437 4.69601563 -1.88671875 3.86328125 C-1.92410156 3.24839844 -1.96148438 2.63351563 -2 2 C-1.34 2 -0.68 2 0 2 C0 1.34 0 0.68 0 0 Z " fill="#242424" transform="translate(28,15)"/>
<path d="M0 0 C0.99 0.66 1.98 1.32 3 2 C2.67 3.98 2.34 5.96 2 8 C0.02 8.33 -1.96 8.66 -4 9 C-4.33 8.01 -4.66 7.02 -5 6 C-5.66 5.34 -6.32 4.68 -7 4 C-5.35 3.67 -3.7 3.34 -2 3 C-2 2.34 -2 1.68 -2 1 C-1.34 0.67 -0.68 0.34 0 0 Z " fill="#2B2A29" transform="translate(49,4)"/>
<path d="M0 0 C0.28875 0.598125 0.5775 1.19625 0.875 1.8125 C2.04742026 4.19327792 2.04742026 4.19327792 4 7 C4.99 8.485 4.99 8.485 6 10 C5.34 10.66 4.68 11.32 4 12 C-0.6875 8.38671875 -0.6875 8.38671875 -2 7 C-2 6.01 -2 5.02 -2 4 C-1.34 4 -0.68 4 0 4 C0 2.68 0 1.36 0 0 Z " fill="#033560" transform="translate(34,17)"/>
<path d="M0 0 C0.66 0.33 1.32 0.66 2 1 C1.6189482 3.76262553 1.16402868 4.84143894 -0.875 6.8125 C-1.57625 7.204375 -2.2775 7.59625 -3 8 C-3.99 7.67 -4.98 7.34 -6 7 C-5.8125 5.1875 -5.8125 5.1875 -5 3 C-2.5625 1.1875 -2.5625 1.1875 0 0 Z " fill="#252525" transform="translate(51,25)"/>
<path d="M0 0 C1.98 0.66 3.96 1.32 6 2 C5.34 2.66 4.68 3.32 4 4 C3.01 4 2.02 4 1 4 C1.33 5.32 1.66 6.64 2 8 C0.0625 7.625 0.0625 7.625 -2 7 C-2.33 6.34 -2.66 5.68 -3 5 C-1.5625 2.375 -1.5625 2.375 0 0 Z " fill="#3B474A" transform="translate(41,4)"/>
<path d="M0 0 C0.33 0 0.66 0 1 0 C1 1.98 1 3.96 1 6 C0.34 6 -0.32 6 -1 6 C-1 6.99 -1 7.98 -1 9 C-1.66 9 -2.32 9 -3 9 C-3 9.99 -3 10.98 -3 12 C-3.99 12.33 -4.98 12.66 -6 13 C-5.52467862 7.92990529 -2.95637706 4.02506742 0 0 Z " fill="#5E5015" transform="translate(7,12)"/>
<path d="M0 0 C1.32 0 2.64 0 4 0 C4 2.31 4 4.62 4 7 C2.68 7 1.36 7 0 7 C0 4.69 0 2.38 0 0 Z " fill="#393939" transform="translate(21,35)"/>
<path d="M0 0 C0.33 0.99 0.66 1.98 1 3 C0.01 3.33 -0.98 3.66 -2 4 C-3.66710346 5.49985609 -3.66710346 5.49985609 -5 7 C-5.33 5.35 -5.66 3.7 -6 2 C-3 0 -3 0 0 0 Z " fill="#7D6605" transform="translate(49,13)"/>
<path d="M0 0 C1.32 0 2.64 0 4 0 C4 1.65 4 3.3 4 5 C2.68 5 1.36 5 0 5 C0 3.35 0 1.7 0 0 Z " fill="#3D3C3A" transform="translate(15,29)"/>
<path d="M0 0 C0.66 0 1.32 0 2 0 C0.8141763 3.37503669 -0.27573689 5.64722731 -3 8 C-3 3.77471908 -2.74375671 2.95481492 0 0 Z " fill="#695817" transform="translate(14,2)"/>
<path d="M0 0 C0.99 0.33 1.98 0.66 3 1 C2.67 2.98 2.34 4.96 2 7 C0.02 7 -1.96 7 -4 7 C-2.68 6.67 -1.36 6.34 0 6 C0 4.02 0 2.04 0 0 Z " fill="#3D3A2E" transform="translate(31,28)"/>
<path d="M0 0 C0.99 0.33 1.98 0.66 3 1 C1 4 1 4 -1.625 4.6875 C-2.800625 4.8421875 -2.800625 4.8421875 -4 5 C-2.93453047 2.86906094 -1.70840281 1.63412443 0 0 Z " fill="#252420" transform="translate(49,8)"/>
<path d="" fill="#252525" transform="translate(0,0)"/>
<path d="" fill="#000000" transform="translate(0,0)"/>
<path d="" fill="#000000" transform="translate(0,0)"/>
<path d="" fill="#000000" transform="translate(0,0)"/>
<path d="" fill="#000000" transform="translate(0,0)"/>
<path d="" fill="#000000" transform="translate(0,0)"/>
<path d="" fill="#000000" transform="translate(0,0)"/>
<path d="" fill="#000000" transform="translate(0,0)"/>
<path d="" fill="#000000" transform="translate(0,0)"/>
<path d="" fill="#000000" transform="translate(0,0)"/>
<path d="" fill="#000000" transform="translate(0,0)"/>
<path d="" fill="#000000" transform="translate(0,0)"/>
</svg>
